<svg width="97" height="49" viewBox="0 0 97 49" fill="none" xmlns="http://www.w3.org/2000/svg">
<path d="M0.481341 11.2334C1.08803 2.89533 3.51481 5.83818 6.54827 4.36676C10.3907 4.36676 20.8662 3.77819 32.0294 1.42391C45.9833 -1.51894 76.318 0.933432 83.5983 1.42391C90.8786 1.91438 90.8786 6.81913 90.8786 14.6667C90.8786 22.5143 90.8786 25.4572 95.1254 35.2667C99.3723 45.0762 95.7321 42.6238 90.8786 46.5476C86.025 50.4714 75.1046 48.5095 32.0294 48.5095C20.3629 48.5095 14.3039 48.5815 11.4175 48.6669C4.29265 48.8778 16.4994 49.171 11.4175 48.6669C10.9568 48.6212 10.354 48.569 9.58174 48.5095C-3.15881 47.5286 0.481341 43.6048 0.481341 40.6619C0.481341 37.7191 -0.125352 19.5715 0.481341 11.2334Z" fill="#5C5C5C"/>
<path d="M53.056 33.192C52.448 33.192 52.008 33.072 51.736 32.832C51.464 32.576 51.32 32.288 51.304 31.968L51.592 31.536C51.448 31.792 51.192 32.048 50.824 32.304C50.456 32.56 49.968 32.776 49.36 32.952C48.752 33.112 48.024 33.192 47.176 33.192C46.184 33.192 45.28 33.04 44.464 32.736C43.664 32.432 42.976 32.008 42.4 31.464C41.824 30.904 41.376 30.264 41.056 29.544C40.752 28.808 40.6 28.016 40.6 27.168C40.6 26.336 40.752 25.56 41.056 24.84C41.376 24.12 41.824 23.496 42.4 22.968C42.992 22.424 43.688 22 44.488 21.696C45.288 21.392 46.184 21.24 47.176 21.24C47.992 21.24 48.688 21.32 49.264 21.48C49.856 21.64 50.344 21.848 50.728 22.104C51.112 22.344 51.392 22.6 51.568 22.872L51.304 22.536C51.304 22.136 51.44 21.816 51.712 21.576C52 21.336 52.456 21.216 53.08 21.216C53.656 21.216 54.064 21.304 54.304 21.48C54.56 21.656 54.712 21.888 54.76 22.176C54.824 22.464 54.856 22.768 54.856 23.088V31.368C54.856 31.672 54.824 31.968 54.76 32.256C54.712 32.544 54.56 32.776 54.304 32.952C54.064 33.112 53.648 33.192 53.056 33.192ZM47.68 29.808C48.4 29.808 49 29.696 49.48 29.472C49.976 29.248 50.344 28.936 50.584 28.536C50.84 28.136 50.968 27.688 50.968 27.192C50.968 26.68 50.84 26.232 50.584 25.848C50.328 25.464 49.952 25.16 49.456 24.936C48.976 24.712 48.368 24.6 47.632 24.6C46.912 24.6 46.304 24.712 45.808 24.936C45.312 25.16 44.936 25.472 44.68 25.872C44.424 26.272 44.296 26.728 44.296 27.24C44.296 27.72 44.424 28.16 44.68 28.56C44.936 28.944 45.32 29.248 45.832 29.472C46.344 29.696 46.96 29.808 47.68 29.808Z" fill="#70FF70"/>
</svg>
