<svg width="49" height="52" viewBox="0 0 49 52" fill="none" xmlns="http://www.w3.org/2000/svg">
<path d="M0.662582 33.7574C-0.537418 25.7574 0.162582 11.7574 0.662582 5.75742L5.66257 0.257419C8.66257 0.590752 18.1626 1.05742 32.1626 0.257419C49.6626 -0.742581 38.6626 1.25742 45.6626 4.75742C52.6626 8.25742 44.6626 7.25742 46.6626 11.7574C48.6626 16.2574 48.6626 21.7574 48.6626 26.2574C48.6626 30.7574 49.1626 38.7574 48.6626 46.2574C48.1626 53.7574 43.1626 50.7574 41.6626 50.7574C40.1626 50.7574 32.6626 49.7574 20.1626 50.7574C7.66257 51.7574 16.6626 50.2574 4.16257 46.2574C-1.33743 42.7574 2.16258 43.7574 0.662582 33.7574Z" fill="#5C5C5C"/>
<path d="M17.1346 35.2573L9.8866 26.9293L17.1346 18.6013H36.1666V35.2573H17.1346ZM18.0226 33.5533H34.4386V20.3053H18.0226L12.2146 26.9293L18.0226 33.5533ZM21.5026 32.6173L20.2306 31.4173L24.5026 26.9293L20.2306 22.4413L21.4786 21.2413L25.7026 25.6813L29.9266 21.2413L31.1746 22.4413L26.9026 26.9293L31.1746 31.4173L29.9026 32.6173L25.7026 28.2013L21.5026 32.6173Z" fill="#70FF70"/>
</svg>
