<svg width="72" height="53" viewBox="0 0 72 53" fill="none" xmlns="http://www.w3.org/2000/svg">
<path d="M7.01605 8.41034C11.4161 -0.389656 23.5161 -0.589656 29.0161 0.410344H57.0161C60.5161 0.410344 66.5161 4.41016 70.0161 8.41034C73.5161 12.4105 70.0161 24.4102 70.0161 29.9102C70.0161 35.4102 70.0161 36.4102 66.5161 43.9102C63.0161 51.4102 64.0161 52.4102 60.0161 52.4102C56.0161 52.4102 39.0161 51.0244 17.5161 50.4102C0.0160522 49.9102 7.01605 49.4102 2.01605 43.9102C-2.98395 38.4102 3.01605 38.4102 2.01605 24.4102C1.01605 10.4102 1.51605 19.4103 7.01605 8.41034Z" fill="#4A1C53"/>
<path d="M30.2521 34.1262C29.6761 34.1262 29.2601 34.0462 29.0041 33.8862C28.7481 33.7102 28.5881 33.4862 28.5241 33.2142C28.4761 32.9262 28.4521 32.6222 28.4521 32.3022V18.4782C28.4521 18.1582 28.4841 17.8622 28.5481 17.5902C28.6121 17.3182 28.7721 17.1022 29.0281 16.9422C29.2841 16.7662 29.7001 16.6782 30.2761 16.6782C30.8681 16.6782 31.2841 16.7662 31.5241 16.9422C31.7801 17.1182 31.9321 17.3422 31.9801 17.6142C32.0441 17.8862 32.0761 18.1822 32.0761 18.5022V23.5182C32.3801 23.1822 32.8441 22.8702 33.4681 22.5822C34.1081 22.2782 34.9241 22.1262 35.9161 22.1262C37.2601 22.1262 38.4041 22.3822 39.3481 22.8942C40.3081 23.3902 41.0361 24.0862 41.5321 24.9822C42.0441 25.8622 42.3001 26.8782 42.3001 28.0302V32.3262C42.3001 32.6462 42.2681 32.9422 42.2041 33.2142C42.1561 33.4862 42.0041 33.7102 41.7481 33.8862C41.5081 34.0462 41.0921 34.1262 40.5001 34.1262C39.9241 34.1262 39.5081 34.0462 39.2521 33.8862C38.9961 33.7102 38.8361 33.4862 38.7721 33.2142C38.7081 32.9262 38.6761 32.6222 38.6761 32.3022V28.0062C38.6761 27.5262 38.5721 27.1102 38.3641 26.7582C38.1561 26.3902 37.8121 26.1102 37.3321 25.9182C36.8681 25.7102 36.2601 25.6062 35.5081 25.6062C34.4841 25.6062 33.6761 25.7822 33.0841 26.1342C32.5081 26.4702 32.1721 26.9182 32.0761 27.4782V32.3262C32.0761 32.6462 32.0441 32.9422 31.9801 33.2142C31.9161 33.4862 31.7561 33.7102 31.5001 33.8862C31.2601 34.0462 30.8441 34.1262 30.2521 34.1262Z" fill="#70FF70"/>
</svg>
