<svg width="103" height="55" viewBox="0 0 103 55" fill="none" xmlns="http://www.w3.org/2000/svg">
<path d="M2.78687 35.5287C2.78687 31.4789 5.29505 31.9851 2.78687 22.8732C2.78687 18.6547 3.66473 8.80032 7.17619 3.13057C10.6877 -2.53919 12.8196 0.768167 13.4466 3.13057C16.9999 4.31175 25.1097 5.9654 29.1228 3.13057C34.1391 -0.412977 78.0323 3.13057 85.5568 3.13057C93.0814 3.13057 95.5896 4.64923 99.3518 6.67411C103.114 8.69899 96.8437 17.3047 101.233 21.3545C105.622 25.4043 100.606 33.5038 99.3518 45.1469C98.0977 56.7899 84.3027 50.2091 71.7618 53.2464C59.2209 56.2837 24.1064 54.7651 13.4466 53.2464C2.78688 51.7277 9.05732 49.1966 2.78687 45.1469C-3.48358 41.0971 2.78687 39.5784 2.78687 35.5287Z" fill="#5C5C5C"/>
<path d="M50.928 34.216C50.352 34.216 49.936 34.136 49.68 33.976C49.44 33.8 49.288 33.576 49.224 33.304C49.176 33.016 49.152 32.72 49.152 32.416V24.04C49.152 23.72 49.176 23.424 49.224 23.152C49.288 22.88 49.448 22.664 49.704 22.504C49.96 22.328 50.376 22.24 50.952 22.24C51.544 22.24 51.96 22.328 52.2 22.504C52.456 22.68 52.608 22.904 52.656 23.176C52.72 23.448 52.752 23.752 52.752 24.088V32.44C52.752 32.744 52.72 33.04 52.656 33.328C52.608 33.6 52.456 33.816 52.2 33.976C51.96 34.136 51.536 34.216 50.928 34.216ZM50.928 20.488C50.336 20.488 49.912 20.4 49.656 20.224C49.4 20.048 49.24 19.816 49.176 19.528C49.128 19.24 49.104 18.936 49.104 18.616C49.104 18.28 49.128 17.976 49.176 17.704C49.24 17.416 49.4 17.192 49.656 17.032C49.928 16.856 50.36 16.768 50.952 16.768C51.56 16.768 51.984 16.856 52.224 17.032C52.48 17.208 52.64 17.44 52.704 17.728C52.768 18.016 52.8 18.32 52.8 18.64C52.8 18.96 52.768 19.264 52.704 19.552C52.64 19.84 52.48 20.072 52.224 20.248C51.984 20.408 51.552 20.488 50.928 20.488Z" fill="#70FF70"/>
</svg>
