<svg width="72" height="54" viewBox="0 0 72 54" fill="none" xmlns="http://www.w3.org/2000/svg">
<path d="M3.61113 8C2.81113 4.4 8.61111 4.5 14.1111 2.5C24.9445 2.5 42.6111 0 50.6111 0C60.6111 0 69.1111 2.5 70.1111 4.5C71.1111 6.5 72.1111 20.5 69.1111 30.5C66.1111 40.5 71.6111 38.5 62.6111 48C53.6111 57.5 55.1111 50.5 50.6111 51C46.1111 51.5 8.61111 53.5 1.11112 43.5C-1.38889 38 1.11112 33.5 1.11112 26.5C1.11112 19.5 4.61112 12.5 3.61113 8Z" fill="#4A1C53"/>
<path d="M40.4271 31.88C40.9071 32.296 41.1631 32.696 41.1951 33.08C41.2431 33.464 41.0671 33.92 40.6671 34.448C40.3631 34.848 40.0831 35.096 39.8271 35.192C39.5871 35.304 39.3311 35.304 39.0591 35.192C38.8031 35.08 38.4751 34.904 38.0751 34.664L32.3151 31.376V33.416C32.3151 33.736 32.2831 34.032 32.2191 34.304C32.1551 34.576 32.0031 34.8 31.7631 34.976C31.5231 35.136 31.0991 35.216 30.4911 35.216C29.9151 35.216 29.4991 35.136 29.2431 34.976C29.0031 34.8 28.8511 34.576 28.7871 34.304C28.7391 34.016 28.7151 33.712 28.7151 33.392V19.544C28.7151 19.224 28.7391 18.928 28.7871 18.656C28.8511 18.384 29.0111 18.168 29.2671 18.008C29.5231 17.832 29.9391 17.744 30.5151 17.744C31.1071 17.744 31.5231 17.832 31.7631 18.008C32.0191 18.168 32.1711 18.392 32.2191 18.68C32.2831 18.952 32.3151 19.248 32.3151 19.568V26.84L37.0191 24.152C37.3871 23.912 37.7151 23.736 38.0031 23.624C38.2911 23.512 38.5631 23.504 38.8191 23.6C39.0911 23.68 39.3551 23.904 39.6111 24.272C40.0591 24.896 40.2591 25.408 40.2111 25.808C40.1631 26.192 39.9151 26.544 39.4671 26.864L35.2671 29.144L40.4271 31.88Z" fill="#70FF70"/>
</svg>
