<svg width="135" height="51" viewBox="0 0 135 51" fill="none" xmlns="http://www.w3.org/2000/svg">
<path d="M1.82978 33.2716C-1.48413 25.3262 0.448986 11.4216 1.82978 5.46251L15.6377 0C23.9225 0.331061 50.1495 0.000175889 88.82 0C120 -0.000141799 118.5 2.24428 126.102 4.46933C129.021 5.32383 127.5 6.74414 128.863 11.4216C130.851 18.2428 134.386 21.3535 134.386 25.8228C134.386 30.2921 135.767 38.2376 134.386 45.6864C133.006 53.1353 119.198 50.1558 115.055 50.1558C110.913 50.1558 90.2008 49.1626 55.6809 50.1558C21.1609 51.149 46.0153 49.6592 11.4953 45.6864C-3.69345 42.2103 5.97218 43.2035 1.82978 33.2716Z" fill="#5C5C5C"/>
<path d="M55.072 32.9601C54.48 32.9601 54.056 32.8801 53.8 32.7201C53.56 32.5441 53.408 32.3121 53.344 32.0241C53.28 31.7361 53.248 31.4401 53.248 31.1361V17.9841C53.248 17.6801 53.28 17.3921 53.344 17.1201C53.408 16.8321 53.568 16.6081 53.824 16.4481C54.08 16.2721 54.504 16.1841 55.096 16.1841C55.688 16.1841 56.104 16.2721 56.344 16.4481C56.6 16.6241 56.76 16.8481 56.824 17.1201C56.888 17.3921 56.92 17.6881 56.92 18.0081V22.2081L66.04 16.6401C66.408 16.3681 66.728 16.1921 67 16.1121C67.272 16.0321 67.528 16.0481 67.768 16.1601C68.024 16.2721 68.296 16.5201 68.584 16.9041C69.032 17.4641 69.232 17.9361 69.184 18.3201C69.136 18.7041 68.848 19.0721 68.32 19.4241L59.8 24.4881L68.344 29.7441C68.872 30.1761 69.152 30.5841 69.184 30.9681C69.232 31.3361 69.024 31.7841 68.56 32.3121C68.224 32.6801 67.928 32.9201 67.672 33.0321C67.416 33.1441 67.16 33.1441 66.904 33.0321C66.648 32.9361 66.344 32.7521 65.992 32.4801L56.92 26.6001V31.1601C56.92 31.4641 56.888 31.7601 56.824 32.0481C56.76 32.3201 56.6 32.5441 56.344 32.7201C56.088 32.8801 55.664 32.9601 55.072 32.9601ZM72.4124 32.9601C71.8364 32.9601 71.4204 32.8801 71.1644 32.7201C70.9244 32.5441 70.7724 32.3201 70.7084 32.0481C70.6604 31.7601 70.6364 31.4641 70.6364 31.1601V22.7841C70.6364 22.4641 70.6604 22.1681 70.7084 21.8961C70.7724 21.6241 70.9324 21.4081 71.1884 21.2481C71.4444 21.0721 71.8604 20.9841 72.4364 20.9841C73.0284 20.9841 73.4444 21.0721 73.6844 21.2481C73.9404 21.4241 74.0924 21.6481 74.1404 21.9201C74.2044 22.1921 74.2364 22.4961 74.2364 22.8321V31.1841C74.2364 31.4881 74.2044 31.7841 74.1404 32.0721C74.0924 32.3441 73.9404 32.5601 73.6844 32.7201C73.4444 32.8801 73.0204 32.9601 72.4124 32.9601ZM72.4124 19.2321C71.8204 19.2321 71.3964 19.1441 71.1404 18.9681C70.8844 18.7921 70.7244 18.5601 70.6604 18.2721C70.6124 17.9841 70.5884 17.6801 70.5884 17.3601C70.5884 17.0241 70.6124 16.7201 70.6604 16.4481C70.7244 16.1601 70.8844 15.9361 71.1404 15.7761C71.4124 15.6001 71.8444 15.5121 72.4364 15.5121C73.0444 15.5121 73.4684 15.6001 73.7084 15.7761C73.9644 15.9521 74.1244 16.1841 74.1884 16.4721C74.2524 16.7601 74.2844 17.0641 74.2844 17.3841C74.2844 17.7041 74.2524 18.0081 74.1884 18.2961C74.1244 18.5841 73.9644 18.8161 73.7084 18.9921C73.4684 19.1521 73.0364 19.2321 72.4124 19.2321ZM84.682 32.9601C83.834 32.9601 83.05 32.8721 82.33 32.6961C81.61 32.5201 80.978 32.2481 80.434 31.8801C79.906 31.4961 79.49 31.0241 79.186 30.4641C78.882 29.8881 78.73 29.2161 78.73 28.4481V18.7041C78.73 18.3841 78.754 18.0961 78.802 17.8401C78.866 17.5841 79.026 17.3761 79.282 17.2161C79.538 17.0401 79.954 16.9521 80.53 16.9521C81.106 16.9521 81.514 17.0401 81.754 17.2161C82.01 17.3921 82.17 17.6161 82.234 17.8881C82.298 18.1601 82.33 18.4561 82.33 18.7761V28.3041C82.33 28.5441 82.394 28.7441 82.522 28.9041C82.65 29.0641 82.826 29.1921 83.05 29.2881C83.274 29.3681 83.522 29.4321 83.794 29.4801C84.082 29.5121 84.378 29.5281 84.682 29.5281C85.05 29.5281 85.37 29.5601 85.642 29.6241C85.914 29.6881 86.122 29.8321 86.266 30.0561C86.41 30.2801 86.482 30.6561 86.482 31.1841C86.482 31.7601 86.394 32.1761 86.218 32.4321C86.042 32.6881 85.81 32.8401 85.522 32.8881C85.25 32.9361 84.97 32.9601 84.682 32.9601ZM77.026 21.1521H81.154L85.378 21.0561C85.682 21.0561 85.97 21.0881 86.242 21.1521C86.514 21.2001 86.738 21.3521 86.914 21.6081C87.09 21.8641 87.178 22.2881 87.178 22.8801C87.178 23.4241 87.09 23.8241 86.914 24.0801C86.738 24.3361 86.514 24.5041 86.242 24.5841C85.986 24.6481 85.698 24.6801 85.378 24.6801L81.346 24.6081H76.93C76.466 24.5921 76.138 24.4561 75.946 24.2001C75.77 23.9281 75.682 23.4801 75.682 22.8561C75.682 22.2801 75.794 21.8561 76.018 21.5841C76.242 21.2961 76.578 21.1521 77.026 21.1521ZM100.587 32.9361C99.9793 32.9361 99.5393 32.8161 99.2673 32.5761C98.9953 32.3201 98.8513 32.0321 98.8353 31.7121L99.1233 31.2801C98.9793 31.5361 98.7233 31.7921 98.3553 32.0481C97.9873 32.3041 97.4993 32.5201 96.8913 32.6961C96.2833 32.8561 95.5553 32.9361 94.7073 32.9361C93.7153 32.9361 92.8113 32.7841 91.9953 32.4801C91.1953 32.1761 90.5073 31.7521 89.9313 31.2081C89.3553 30.6481 88.9073 30.0081 88.5873 29.2881C88.2833 28.5521 88.1313 27.7601 88.1313 26.9121C88.1313 26.0801 88.2833 25.3041 88.5873 24.5841C88.9073 23.8641 89.3553 23.2401 89.9313 22.7121C90.5233 22.1681 91.2193 21.7441 92.0193 21.4401C92.8193 21.1361 93.7153 20.9841 94.7073 20.9841C95.5233 20.9841 96.2193 21.0641 96.7953 21.2241C97.3873 21.3841 97.8753 21.5921 98.2593 21.8481C98.6433 22.0881 98.9233 22.3441 99.0993 22.6161L98.8353 22.2801C98.8353 21.8801 98.9713 21.5601 99.2433 21.3201C99.5313 21.0801 99.9873 20.9601 100.611 20.9601C101.187 20.9601 101.595 21.0481 101.835 21.2241C102.091 21.4001 102.243 21.6321 102.291 21.9201C102.355 22.2081 102.387 22.5121 102.387 22.8321V31.1121C102.387 31.4161 102.355 31.7121 102.291 32.0001C102.243 32.2881 102.091 32.5201 101.835 32.6961C101.595 32.8561 101.179 32.9361 100.587 32.9361ZM95.2113 29.5521C95.9313 29.5521 96.5313 29.4401 97.0113 29.2161C97.5073 28.9921 97.8753 28.6801 98.1153 28.2801C98.3713 27.8801 98.4993 27.4321 98.4993 26.9361C98.4993 26.4241 98.3713 25.9761 98.1153 25.5921C97.8593 25.2081 97.4833 24.9041 96.9873 24.6801C96.5073 24.4561 95.8993 24.3441 95.1633 24.3441C94.4433 24.3441 93.8353 24.4561 93.3393 24.6801C92.8433 24.9041 92.4673 25.2161 92.2113 25.6161C91.9553 26.0161 91.8273 26.4721 91.8273 26.9841C91.8273 27.4641 91.9553 27.9041 92.2113 28.3041C92.4673 28.6881 92.8513 28.9921 93.3633 29.2161C93.8753 29.4401 94.4913 29.5521 95.2113 29.5521Z" fill="#70FF70"/>
<path d="M34 39C33.2667 39 32.6391 38.7359 32.1173 38.2076C31.5947 37.6784 31.3333 37.0425 31.3333 36.3H36.6667C36.6667 37.0425 36.4058 37.6784 35.884 38.2076C35.3613 38.7359 34.7333 39 34 39ZM28.6667 34.95V32.25H39.3333V34.95H28.6667ZM29 30.9C27.4667 29.9775 26.2502 28.74 25.3507 27.1875C24.4502 25.635 24 23.9475 24 22.125C24 19.3125 24.9724 16.9221 26.9173 14.9538C28.8613 12.9846 31.2222 12 34 12C36.7778 12 39.1387 12.9846 41.0827 14.9538C43.0276 16.9221 44 19.3125 44 22.125C44 23.9475 43.5502 25.635 42.6507 27.1875C41.7502 28.74 40.5333 29.9775 39 30.9H29ZM29.8 28.2H38.2C39.2 27.48 39.9724 26.5912 40.5173 25.5337C41.0613 24.4762 41.3333 23.34 41.3333 22.125C41.3333 20.055 40.6222 18.3 39.2 16.86C37.7778 15.42 36.0444 14.7 34 14.7C31.9556 14.7 30.2222 15.42 28.8 16.86C27.3778 18.3 26.6667 20.055 26.6667 22.125C26.6667 23.34 26.9391 24.4762 27.484 25.5337C28.028 26.5912 28.8 27.48 29.8 28.2Z" fill="#70FF70"/>
</svg>
