<svg width="135" height="51" viewBox="0 0 135 51" fill="none" xmlns="http://www.w3.org/2000/svg">
<path d="M1.82978 33.2716C-1.48413 25.3262 0.448986 11.4216 1.82978 5.46251L15.6377 0C23.9225 0.331061 50.1495 0.000175889 88.82 0C120 -0.000141799 118.5 2.24428 126.102 4.46933C129.021 5.32383 127.5 6.74414 128.863 11.4216C130.851 18.2428 134.386 21.3535 134.386 25.8228C134.386 30.2921 135.767 38.2376 134.386 45.6864C133.006 53.1353 119.198 50.1558 115.055 50.1558C110.913 50.1558 90.2008 49.1626 55.6809 50.1558C21.1609 51.149 46.0153 49.6592 11.4953 45.6864C-3.69345 42.2103 5.97218 43.2035 1.82978 33.2716Z" fill="#5C5C5C"/>
<path d="M55.072 32.9601C54.48 32.9601 54.056 32.8801 53.8 32.7201C53.56 32.5441 53.408 32.3121 53.344 32.0241C53.28 31.7361 53.248 31.4401 53.248 31.1361V17.9841C53.248 17.6801 53.28 17.3921 53.344 17.1201C53.408 16.8321 53.568 16.6081 53.824 16.4481C54.08 16.2721 54.504 16.1841 55.096 16.1841C55.688 16.1841 56.104 16.2721 56.344 16.4481C56.6 16.6241 56.76 16.8481 56.824 17.1201C56.888 17.3921 56.92 17.6881 56.92 18.0081V22.2081L66.04 16.6401C66.408 16.3681 66.728 16.1921 67 16.1121C67.272 16.0321 67.528 16.0481 67.768 16.1601C68.024 16.2721 68.296 16.5201 68.584 16.9041C69.032 17.4641 69.232 17.9361 69.184 18.3201C69.136 18.7041 68.848 19.0721 68.32 19.4241L59.8 24.4881L68.344 29.7441C68.872 30.1761 69.152 30.5841 69.184 30.9681C69.232 31.3361 69.024 31.7841 68.56 32.3121C68.224 32.6801 67.928 32.9201 67.672 33.0321C67.416 33.1441 67.16 33.1441 66.904 33.0321C66.648 32.9361 66.344 32.7521 65.992 32.4801L56.92 26.6001V31.1601C56.92 31.4641 56.888 31.7601 56.824 32.0481C56.76 32.3201 56.6 32.5441 56.344 32.7201C56.088 32.8801 55.664 32.9601 55.072 32.9601ZM76.5432 32.9361C75.4872 32.9361 74.5672 32.7841 73.7832 32.4801C72.9992 32.1601 72.3432 31.7281 71.8152 31.1841C71.3032 30.6241 70.9192 29.9761 70.6632 29.2401C70.4072 28.5041 70.2792 27.7121 70.2792 26.8641V22.7601C70.2792 22.4401 70.3032 22.1441 70.3512 21.8721C70.4152 21.6001 70.5752 21.3761 70.8312 21.2001C71.0872 21.0241 71.5032 20.9361 72.0792 20.9361C72.6712 20.9361 73.0872 21.0241 73.3272 21.2001C73.5832 21.3761 73.7432 21.6081 73.8072 21.8961C73.8712 22.1681 73.9032 22.4641 73.9032 22.7841V26.9601C73.9032 27.4241 73.9992 27.8481 74.1912 28.2321C74.3992 28.6001 74.7432 28.8961 75.2232 29.1201C75.7192 29.3441 76.3992 29.4561 77.2632 29.4561C78.1112 29.4561 78.7832 29.3441 79.2792 29.1201C79.7912 28.8961 80.1512 28.5921 80.3592 28.2081C80.5832 27.8241 80.6952 27.4081 80.6952 26.9601V22.7361C80.6952 22.4161 80.7272 22.1201 80.7912 21.8481C80.8552 21.5761 81.0072 21.3601 81.2472 21.2001C81.5032 21.0241 81.9272 20.9361 82.5192 20.9361C83.0952 20.9361 83.5032 21.0241 83.7432 21.2001C83.9992 21.3761 84.1512 21.6081 84.1992 21.8961C84.2632 22.1681 84.2952 22.4561 84.2952 22.7601V31.2081C84.2952 31.5121 84.2632 31.8001 84.1992 32.0721C84.1512 32.3281 83.9992 32.5361 83.7432 32.6961C83.4872 32.8561 83.0712 32.9361 82.4952 32.9361C82.0312 32.9361 81.6792 32.8721 81.4392 32.7441C81.1992 32.6161 81.0312 32.4561 80.9352 32.2641C80.8392 32.0721 80.7832 31.8961 80.7672 31.7361C80.7512 31.5601 80.7432 31.4321 80.7432 31.3521L80.8632 30.9681C80.8632 31.0961 80.7752 31.2721 80.5992 31.4961C80.4232 31.7041 80.1512 31.9201 79.7832 32.1441C79.4152 32.3681 78.9592 32.5601 78.4152 32.7201C77.8872 32.8641 77.2632 32.9361 76.5432 32.9361ZM94.8304 32.9601C93.9824 32.9601 93.1984 32.8721 92.4784 32.6961C91.7584 32.5201 91.1264 32.2481 90.5824 31.8801C90.0544 31.4961 89.6384 31.0241 89.3344 30.4641C89.0304 29.8881 88.8784 29.2161 88.8784 28.4481V18.7041C88.8784 18.3841 88.9024 18.0961 88.9504 17.8401C89.0144 17.5841 89.1744 17.3761 89.4304 17.2161C89.6864 17.0401 90.1024 16.9521 90.6784 16.9521C91.2544 16.9521 91.6624 17.0401 91.9024 17.2161C92.1584 17.3921 92.3184 17.6161 92.3824 17.8881C92.4464 18.1601 92.4784 18.4561 92.4784 18.7761V28.3041C92.4784 28.5441 92.5424 28.7441 92.6704 28.9041C92.7984 29.0641 92.9744 29.1921 93.1984 29.2881C93.4224 29.3681 93.6704 29.4321 93.9424 29.4801C94.2304 29.5121 94.5264 29.5281 94.8304 29.5281C95.1984 29.5281 95.5184 29.5601 95.7904 29.6241C96.0624 29.6881 96.2704 29.8321 96.4144 30.0561C96.5584 30.2801 96.6304 30.6561 96.6304 31.1841C96.6304 31.7601 96.5424 32.1761 96.3664 32.4321C96.1904 32.6881 95.9584 32.8401 95.6704 32.8881C95.3984 32.9361 95.1184 32.9601 94.8304 32.9601ZM87.1744 21.1521H91.3024L95.5264 21.0561C95.8304 21.0561 96.1184 21.0881 96.3904 21.1521C96.6624 21.2001 96.8864 21.3521 97.0624 21.6081C97.2384 21.8641 97.3264 22.2881 97.3264 22.8801C97.3264 23.4241 97.2384 23.8241 97.0624 24.0801C96.8864 24.3361 96.6624 24.5041 96.3904 24.5841C96.1344 24.6481 95.8464 24.6801 95.5264 24.6801L91.4944 24.6081H87.0784C86.6144 24.5921 86.2864 24.4561 86.0944 24.2001C85.9184 23.9281 85.8304 23.4801 85.8304 22.8561C85.8304 22.2801 85.9424 21.8561 86.1664 21.5841C86.3904 21.2961 86.7264 21.1521 87.1744 21.1521ZM110.736 32.9361C110.128 32.9361 109.688 32.8161 109.416 32.5761C109.144 32.3201 109 32.0321 108.984 31.7121L109.272 31.2801C109.128 31.5361 108.872 31.7921 108.504 32.0481C108.136 32.3041 107.648 32.5201 107.04 32.6961C106.432 32.8561 105.704 32.9361 104.856 32.9361C103.864 32.9361 102.96 32.7841 102.144 32.4801C101.344 32.1761 100.656 31.7521 100.08 31.2081C99.5037 30.6481 99.0557 30.0081 98.7357 29.2881C98.4317 28.5521 98.2797 27.7601 98.2797 26.9121C98.2797 26.0801 98.4317 25.3041 98.7357 24.5841C99.0557 23.8641 99.5037 23.2401 100.08 22.7121C100.672 22.1681 101.368 21.7441 102.168 21.4401C102.968 21.1361 103.864 20.9841 104.856 20.9841C105.672 20.9841 106.368 21.0641 106.944 21.2241C107.536 21.3841 108.024 21.5921 108.408 21.8481C108.792 22.0881 109.072 22.3441 109.248 22.6161L108.984 22.2801C108.984 21.8801 109.12 21.5601 109.392 21.3201C109.68 21.0801 110.136 20.9601 110.76 20.9601C111.336 20.9601 111.744 21.0481 111.984 21.2241C112.24 21.4001 112.392 21.6321 112.44 21.9201C112.504 22.2081 112.536 22.5121 112.536 22.8321V31.1121C112.536 31.4161 112.504 31.7121 112.44 32.0001C112.392 32.2881 112.24 32.5201 111.984 32.6961C111.744 32.8561 111.328 32.9361 110.736 32.9361ZM105.36 29.5521C106.08 29.5521 106.68 29.4401 107.16 29.2161C107.656 28.9921 108.024 28.6801 108.264 28.2801C108.52 27.8801 108.648 27.4321 108.648 26.9361C108.648 26.4241 108.52 25.9761 108.264 25.5921C108.008 25.2081 107.632 24.9041 107.136 24.6801C106.656 24.4561 106.048 24.3441 105.312 24.3441C104.592 24.3441 103.984 24.4561 103.488 24.6801C102.992 24.9041 102.616 25.2161 102.36 25.6161C102.104 26.0161 101.976 26.4721 101.976 26.9841C101.976 27.4641 102.104 27.9041 102.36 28.3041C102.616 28.6881 103 28.9921 103.512 29.2161C104.024 29.4401 104.64 29.5521 105.36 29.5521Z" fill="#70FF70"/>
<path d="M35 13C28.928 13 24 17.928 24 24C24 30.072 28.928 35 35 35C41.072 35 46 30.072 46 24C46 17.928 41.072 13 35 13ZM35 32.8C30.149 32.8 26.2 28.851 26.2 24C26.2 19.149 30.149 15.2 35 15.2C39.851 15.2 43.8 19.149 43.8 24C43.8 28.851 39.851 32.8 35 32.8ZM40.049 19.138L32.8 26.387L29.951 23.549L28.4 25.1L32.8 29.5L41.6 20.7L40.049 19.138Z" fill="#70FF70"/>
</svg>
