<svg width="72" height="53" viewBox="0 0 72 53" fill="none" xmlns="http://www.w3.org/2000/svg">
<path d="M64.5555 43.9998C60.1555 52.7998 48.0555 52.9998 42.5555 51.9998L14.5555 51.9998C11.0555 51.9998 5.05554 48 1.55554 43.9998C-1.94446 39.9996 1.55554 28 1.55554 22.5C1.55555 17 1.55555 16 5.05555 8.49999C8.55555 0.999994 7.55555 -5.59646e-06 11.5555 -5.24677e-06C15.5555 -4.89708e-06 32.5555 1.38571 54.0555 2C71.5555 2.5 64.5555 3 69.5555 8.5C74.5555 14 68.5555 14 69.5555 28C70.5555 42 70.0555 32.9998 64.5555 43.9998Z" fill="#4A1C53"/>
<path d="M38.296 34.1262C37.672 34.1262 37.056 34.0862 36.448 34.0062C35.856 33.9422 35.296 33.8142 34.768 33.6222C34.24 33.4302 33.776 33.1662 33.376 32.8302C32.976 32.4942 32.664 32.0622 32.44 31.5342C32.216 30.9902 32.104 30.3262 32.104 29.5422V18.4542C32.104 18.1342 32.128 17.8382 32.176 17.5662C32.24 17.2942 32.4 17.0702 32.656 16.8942C32.912 16.7182 33.328 16.6302 33.904 16.6302C34.48 16.6302 34.888 16.7182 35.128 16.8942C35.384 17.0702 35.544 17.2942 35.608 17.5662C35.672 17.8382 35.704 18.1342 35.704 18.4542V29.3742C35.704 29.6302 35.792 29.8462 35.968 30.0222C36.144 30.1822 36.368 30.3102 36.64 30.4062C36.912 30.5022 37.192 30.5662 37.48 30.5982C37.784 30.6302 38.056 30.6462 38.296 30.6462C38.504 30.6462 38.704 30.6702 38.896 30.7182C39.104 30.7662 39.272 30.9102 39.4 31.1502C39.544 31.3902 39.616 31.7902 39.616 32.3502C39.616 32.9262 39.544 33.3422 39.4 33.5982C39.272 33.8542 39.104 34.0062 38.896 34.0542C38.688 34.1022 38.488 34.1262 38.296 34.1262Z" fill="#70FF70"/>
</svg>
