<svg width="72" height="54" viewBox="0 0 72 54" fill="none" xmlns="http://www.w3.org/2000/svg">
<path d="M3.61113 8C2.81113 4.4 8.61111 4.5 14.1111 2.5C24.9445 2.5 42.6111 0 50.6111 0C60.6111 0 69.1111 2.5 70.1111 4.5C71.1111 6.5 72.1111 20.5 69.1111 30.5C66.1111 40.5 71.6111 38.5 62.6111 48C53.6111 57.5 55.1111 50.5 50.6111 51C46.1111 51.5 8.61111 53.5 1.11112 43.5C-1.38889 38 1.11112 33.5 1.11112 26.5C1.11112 19.5 4.61112 12.5 3.61113 8Z" fill="#4A1C53"/>
<path d="M23.688 35.216C23.096 35.216 22.672 35.128 22.416 34.952C22.176 34.776 22.024 34.552 21.96 34.28C21.912 34.008 21.888 33.712 21.888 33.392V24.992C21.888 24.672 21.92 24.384 21.984 24.128C22.048 23.856 22.2 23.64 22.44 23.48C22.696 23.304 23.12 23.216 23.712 23.216C24.32 23.216 24.752 23.352 25.008 23.624C25.28 23.88 25.416 24.272 25.416 24.8L25.176 25.136C25.256 24.944 25.384 24.736 25.56 24.512C25.752 24.288 26 24.08 26.304 23.888C26.624 23.68 27 23.512 27.432 23.384C27.864 23.256 28.352 23.192 28.896 23.192C29.664 23.192 30.32 23.28 30.864 23.456C31.424 23.616 31.896 23.856 32.28 24.176C32.664 24.48 32.984 24.848 33.24 25.28C33.48 24.896 33.792 24.552 34.176 24.248C34.576 23.928 35.056 23.672 35.616 23.48C36.192 23.288 36.848 23.192 37.584 23.192C38.784 23.192 39.76 23.432 40.512 23.912C41.28 24.392 41.84 25.08 42.192 25.976C42.544 26.856 42.72 27.904 42.72 29.12V33.416C42.72 33.72 42.688 34.016 42.624 34.304C42.576 34.576 42.424 34.8 42.168 34.976C41.912 35.136 41.488 35.216 40.896 35.216C40.304 35.216 39.88 35.128 39.624 34.952C39.384 34.776 39.232 34.552 39.168 34.28C39.12 33.992 39.096 33.696 39.096 33.392V29.096C39.096 28.6 39.024 28.176 38.88 27.824C38.736 27.456 38.488 27.176 38.136 26.984C37.8 26.792 37.312 26.696 36.672 26.696C36.032 26.696 35.52 26.792 35.136 26.984C34.768 27.176 34.504 27.448 34.344 27.8C34.184 28.152 34.104 28.592 34.104 29.12V33.416C34.104 33.72 34.072 34.016 34.008 34.304C33.944 34.576 33.784 34.8 33.528 34.976C33.272 35.152 32.848 35.232 32.256 35.216C31.68 35.216 31.264 35.128 31.008 34.952C30.768 34.76 30.624 34.528 30.576 34.256C30.528 33.984 30.504 33.696 30.504 33.392V29.096C30.504 28.6 30.432 28.176 30.288 27.824C30.144 27.456 29.896 27.176 29.544 26.984C29.192 26.792 28.704 26.696 28.08 26.696C27.408 26.696 26.888 26.8 26.52 27.008C26.152 27.216 25.888 27.504 25.728 27.872C25.584 28.224 25.512 28.632 25.512 29.096V33.416C25.512 33.736 25.48 34.032 25.416 34.304C25.368 34.576 25.216 34.8 24.96 34.976C24.704 35.136 24.28 35.216 23.688 35.216Z" fill="#70FF70"/>
</svg>
