<svg width="71" height="52" viewBox="0 0 71 52" fill="none" xmlns="http://www.w3.org/2000/svg">
<path d="M0.542486 25.6153C-1.45751 3.61533 2.04249 17.6153 11.5425 3.61533H14.0425C22.7091 2.61533 42.4425 0.515328 52.0425 0.115328C64.0425 -0.384672 59.5425 0.615328 66.0425 5.61533C71.2425 9.61533 71.2091 14.282 70.5425 16.1153C69.7091 20.282 67.6425 31.2153 66.0425 41.6153C64.0425 54.6153 60.0425 46.6153 52.0425 50.1153C44.0425 53.6153 24.5425 49.6153 11.5425 50.1153C-1.45751 50.6153 2.54249 47.6153 0.542486 25.6153Z" fill="#4A1C53"/>
<path d="M29.8265 34.3072C29.2345 34.3072 28.8105 34.2272 28.5545 34.0672C28.3145 33.8912 28.1625 33.6672 28.0985 33.3952C28.0505 33.1072 28.0265 32.8112 28.0265 32.5072V24.0592C28.0265 23.7552 28.0585 23.4752 28.1225 23.2192C28.1865 22.9472 28.3385 22.7312 28.5785 22.5712C28.8345 22.4112 29.2585 22.3312 29.8505 22.3312C30.3625 22.3312 30.7385 22.4112 30.9785 22.5712C31.2185 22.7152 31.3705 22.8912 31.4345 23.0992C31.5145 23.3072 31.5545 23.4992 31.5545 23.6752C31.5545 23.8512 31.5705 23.9632 31.6025 24.0112L31.4825 24.5152C31.4985 24.2912 31.6185 24.0592 31.8425 23.8192C32.0665 23.5632 32.3705 23.3232 32.7545 23.0992C33.1545 22.8592 33.6265 22.6752 34.1705 22.5472C34.7145 22.4032 35.3305 22.3312 36.0185 22.3312C37.0745 22.3312 37.9865 22.4832 38.7545 22.7872C39.5225 23.0912 40.1465 23.5232 40.6265 24.0832C41.1225 24.6432 41.4825 25.2912 41.7065 26.0272C41.9465 26.7632 42.0665 27.5552 42.0665 28.4032V32.5312C42.0665 32.8352 42.0345 33.1232 41.9705 33.3952C41.9065 33.6672 41.7545 33.8912 41.5145 34.0672C41.2745 34.2272 40.8585 34.3072 40.2665 34.3072C39.6745 34.3072 39.2505 34.2272 38.9945 34.0672C38.7385 33.8912 38.5785 33.6672 38.5145 33.3952C38.4505 33.1072 38.4185 32.8112 38.4185 32.5072V28.3072C38.4185 27.8272 38.3225 27.4032 38.1305 27.0352C37.9385 26.6512 37.5945 26.3552 37.0985 26.1472C36.6185 25.9232 35.9465 25.8112 35.0825 25.8112C34.2185 25.8112 33.5305 25.9232 33.0185 26.1472C32.5225 26.3712 32.1625 26.6752 31.9385 27.0592C31.7305 27.4272 31.6265 27.8432 31.6265 28.3072V32.5312C31.6265 32.8352 31.5945 33.1232 31.5305 33.3952C31.4825 33.6672 31.3305 33.8912 31.0745 34.0672C30.8345 34.2272 30.4185 34.3072 29.8265 34.3072Z" fill="#70FF70"/>
</svg>
