<svg width="72" height="54" viewBox="0 0 72 54" fill="none" xmlns="http://www.w3.org/2000/svg">
<path d="M3.61113 8C2.81113 4.4 8.61111 4.5 14.1111 2.5C24.9445 2.5 42.6111 0 50.6111 0C60.6111 0 69.1111 2.5 70.1111 4.5C71.1111 6.5 72.1111 20.5 69.1111 30.5C66.1111 40.5 71.6111 38.5 62.6111 48C53.6111 57.5 55.1111 50.5 50.6111 51C46.1111 51.5 8.61111 53.5 1.11112 43.5C-1.38889 38 1.11112 33.5 1.11112 26.5C1.11112 19.5 4.61112 12.5 3.61113 8Z" fill="#4A1C53"/>
<path d="M36.52 35.096C35.48 35.096 34.6 34.944 33.88 34.64C33.176 34.32 32.608 33.888 32.176 33.344C31.76 32.8 31.456 32.168 31.264 31.448C31.072 30.712 30.976 29.928 30.976 29.096C30.992 28.312 31.096 27.568 31.288 26.864C31.48 26.16 31.792 25.536 32.224 24.992C32.656 24.448 33.224 24.016 33.928 23.696C34.632 23.376 35.496 23.216 36.52 23.216C37.512 23.216 38.408 23.368 39.208 23.672C40.024 23.976 40.72 24.4 41.296 24.944C41.888 25.472 42.336 26.104 42.64 26.84C42.96 27.56 43.12 28.336 43.12 29.168C43.12 30.032 42.96 30.824 42.64 31.544C42.336 32.264 41.896 32.896 41.32 33.44C40.744 33.968 40.048 34.376 39.232 34.664C38.432 34.952 37.528 35.096 36.52 35.096ZM30.784 40.184C30.208 40.184 29.792 40.096 29.536 39.92C29.28 39.76 29.12 39.544 29.056 39.272C29.008 39 28.984 38.712 28.984 38.408V25.016C28.984 24.712 29.008 24.424 29.056 24.152C29.104 23.88 29.256 23.656 29.512 23.48C29.768 23.304 30.184 23.216 30.76 23.216C31.208 23.216 31.584 23.296 31.888 23.456C32.208 23.616 32.432 23.856 32.56 24.176V38.384C32.592 38.688 32.576 38.976 32.512 39.248C32.448 39.536 32.288 39.76 32.032 39.92C31.776 40.096 31.36 40.184 30.784 40.184ZM36.016 31.808C36.768 31.808 37.392 31.696 37.888 31.472C38.4 31.248 38.784 30.944 39.04 30.56C39.296 30.16 39.424 29.712 39.424 29.216C39.424 28.704 39.296 28.256 39.04 27.872C38.784 27.472 38.408 27.168 37.912 26.96C37.416 26.736 36.792 26.624 36.04 26.624C35.32 26.624 34.704 26.736 34.192 26.96C33.696 27.184 33.32 27.488 33.064 27.872C32.808 28.256 32.68 28.704 32.68 29.216C32.68 29.712 32.808 30.16 33.064 30.56C33.32 30.944 33.696 31.248 34.192 31.472C34.688 31.696 35.296 31.808 36.016 31.808Z" fill="#70FF70"/>
</svg>
