<svg width="72" height="53" viewBox="0 0 72 53" fill="none" xmlns="http://www.w3.org/2000/svg">
<path d="M7.01605 8.41034C11.4161 -0.389656 23.5161 -0.589656 29.0161 0.410344H57.0161C60.5161 0.410344 66.5161 4.41016 70.0161 8.41034C73.5161 12.4105 70.0161 24.4102 70.0161 29.9102C70.0161 35.4102 70.0161 36.4102 66.5161 43.9102C63.0161 51.4102 64.0161 52.4102 60.0161 52.4102C56.0161 52.4102 39.0161 51.0244 17.5161 50.4102C0.0160522 49.9102 7.01605 49.4102 2.01605 43.9102C-2.98395 38.4102 3.01605 38.4102 2.01605 24.4102C1.01605 10.4102 1.51605 19.4103 7.01605 8.41034Z" fill="#4A1C53"/>
<path d="M34.504 35.408C33.848 35.408 33.216 35.36 32.608 35.264C32 35.168 31.44 35.032 30.928 34.856C30.416 34.664 29.984 34.464 29.632 34.256C29.28 34.032 29.032 33.8 28.888 33.56C28.744 33.384 28.672 33.184 28.672 32.96C28.688 32.736 28.752 32.496 28.864 32.24C28.992 31.984 29.152 31.728 29.344 31.472C29.552 31.216 29.776 31.096 30.016 31.112C30.256 31.128 30.52 31.208 30.808 31.352C31.048 31.448 31.328 31.56 31.648 31.688C31.984 31.816 32.336 31.944 32.704 32.072C33.072 32.184 33.44 32.28 33.808 32.36C34.176 32.44 34.52 32.48 34.84 32.48C35.752 32.48 36.4 32.416 36.784 32.288C37.168 32.144 37.36 31.936 37.36 31.664C37.36 31.488 37.264 31.344 37.072 31.232C36.88 31.104 36.624 31 36.304 30.92C36 30.84 35.656 30.768 35.272 30.704C34.888 30.64 34.496 30.576 34.096 30.512C33.696 30.448 33.32 30.376 32.968 30.296C32.488 30.2 32.016 30.072 31.552 29.912C31.088 29.736 30.664 29.512 30.28 29.24C29.912 28.952 29.616 28.6 29.392 28.184C29.168 27.752 29.056 27.232 29.056 26.624C29.056 25.872 29.256 25.232 29.656 24.704C30.072 24.16 30.696 23.744 31.528 23.456C32.376 23.168 33.448 23.024 34.744 23.024C35.096 23.024 35.48 23.048 35.896 23.096C36.328 23.144 36.76 23.216 37.192 23.312C37.624 23.408 38.032 23.52 38.416 23.648C38.8 23.776 39.136 23.92 39.424 24.08C39.904 24.32 40.152 24.632 40.168 25.016C40.184 25.384 40.048 25.776 39.76 26.192C39.552 26.512 39.328 26.728 39.088 26.84C38.864 26.936 38.616 26.92 38.344 26.792C38.056 26.648 37.696 26.504 37.264 26.36C36.832 26.2 36.384 26.064 35.92 25.952C35.456 25.84 35.024 25.784 34.624 25.784C34.048 25.784 33.6 25.824 33.28 25.904C32.96 25.984 32.736 26.088 32.608 26.216C32.48 26.344 32.416 26.488 32.416 26.648C32.416 26.84 32.544 27 32.8 27.128C33.056 27.24 33.384 27.336 33.784 27.416C34.2 27.48 34.64 27.544 35.104 27.608C35.568 27.672 36 27.744 36.4 27.824C36.912 27.92 37.424 28.048 37.936 28.208C38.448 28.352 38.912 28.56 39.328 28.832C39.744 29.104 40.08 29.464 40.336 29.912C40.592 30.344 40.72 30.904 40.72 31.592C40.72 32.808 40.192 33.752 39.136 34.424C38.096 35.08 36.552 35.408 34.504 35.408Z" fill="#70FF70"/>
</svg>
