<svg width="71" height="52" viewBox="0 0 71 52" fill="none" xmlns="http://www.w3.org/2000/svg">
<path d="M0.542486 25.6153C-1.45751 3.61533 2.04249 17.6153 11.5425 3.61533H14.0425C22.7091 2.61533 42.4425 0.515328 52.0425 0.115328C64.0425 -0.384672 59.5425 0.615328 66.0425 5.61533C71.2425 9.61533 71.2091 14.282 70.5425 16.1153C69.7091 20.282 67.6425 31.2153 66.0425 41.6153C64.0425 54.6153 60.0425 46.6153 52.0425 50.1153C44.0425 53.6153 24.5425 49.6153 11.5425 50.1153C-1.45751 50.6153 2.54249 47.6153 0.542486 25.6153Z" fill="#4A1C53"/>
<path d="M37.432 35.216C36.584 35.216 35.8 35.128 35.08 34.952C34.36 34.776 33.728 34.504 33.184 34.136C32.656 33.752 32.24 33.28 31.936 32.72C31.632 32.144 31.48 31.472 31.48 30.704V20.96C31.48 20.64 31.504 20.352 31.552 20.096C31.616 19.84 31.776 19.632 32.032 19.472C32.288 19.296 32.704 19.208 33.28 19.208C33.856 19.208 34.264 19.296 34.504 19.472C34.76 19.648 34.92 19.872 34.984 20.144C35.048 20.416 35.08 20.712 35.08 21.032V30.56C35.08 30.8 35.144 31 35.272 31.16C35.4 31.32 35.576 31.448 35.8 31.544C36.024 31.624 36.272 31.688 36.544 31.736C36.832 31.768 37.128 31.784 37.432 31.784C37.8 31.784 38.12 31.816 38.392 31.88C38.664 31.944 38.872 32.088 39.016 32.312C39.16 32.536 39.232 32.912 39.232 33.44C39.232 34.016 39.144 34.432 38.968 34.688C38.792 34.944 38.56 35.096 38.272 35.144C38 35.192 37.72 35.216 37.432 35.216ZM29.776 23.408H33.904L38.128 23.312C38.432 23.312 38.72 23.344 38.992 23.408C39.264 23.456 39.488 23.608 39.664 23.864C39.84 24.12 39.928 24.544 39.928 25.136C39.928 25.68 39.84 26.08 39.664 26.336C39.488 26.592 39.264 26.76 38.992 26.84C38.736 26.904 38.448 26.936 38.128 26.936L34.096 26.864H29.68C29.216 26.848 28.888 26.712 28.696 26.456C28.52 26.184 28.432 25.736 28.432 25.112C28.432 24.536 28.544 24.112 28.768 23.84C28.992 23.552 29.328 23.408 29.776 23.408Z" fill="#70FF70"/>
</svg>
