<svg width="110" height="53" viewBox="0 0 110 53" fill="none" xmlns="http://www.w3.org/2000/svg">
<path d="M1.2302 27.7502C-0.997807 22.9651 0.301861 18.1135 1.2302 16.2859V9.80604C1.2302 6.81549 10.2814 2.82776 14.4589 2.82776C18.6365 2.82776 42.309 -1.15982 54.1452 0.335521C65.9815 1.83087 73.6402 2.82776 79.9065 2.82776H96.6165C104.972 2.82776 105.668 7.3138 105.668 9.80604C105.668 12.2983 109.845 27.7502 109.845 31.7378C109.845 35.7253 111.238 42.2052 105.668 47.1897C100.098 52.1741 100.098 52.1741 96.6165 52.1741C93.1353 52.1741 95.9203 47.1897 88.2615 47.1897C80.6028 47.1897 74.3365 50.1804 57.6265 50.1804C40.9165 50.1804 45.7902 50.1804 22.1177 52.1741C-1.55481 54.1679 10.2814 52.1741 5.40769 50.1804C0.533938 48.1866 1.2302 43.7005 1.2302 42.2052C1.2302 40.7098 4.0152 33.7316 1.2302 27.7502Z" fill="#5C5C5C"/>
<path d="M54.176 33.192C53.12 33.192 52.2 33.04 51.416 32.736C50.632 32.416 49.976 31.984 49.448 31.44C48.936 30.88 48.552 30.232 48.296 29.496C48.04 28.76 47.912 27.968 47.912 27.12V23.016C47.912 22.696 47.936 22.4 47.984 22.128C48.048 21.856 48.208 21.632 48.464 21.456C48.72 21.28 49.136 21.192 49.712 21.192C50.304 21.192 50.72 21.28 50.96 21.456C51.216 21.632 51.376 21.864 51.44 22.152C51.504 22.424 51.536 22.72 51.536 23.04V27.216C51.536 27.68 51.632 28.104 51.824 28.488C52.032 28.856 52.376 29.152 52.856 29.376C53.352 29.6 54.032 29.712 54.896 29.712C55.744 29.712 56.416 29.6 56.912 29.376C57.424 29.152 57.784 28.848 57.992 28.464C58.216 28.08 58.328 27.664 58.328 27.216V22.992C58.328 22.672 58.36 22.376 58.424 22.104C58.488 21.832 58.64 21.616 58.88 21.456C59.136 21.28 59.56 21.192 60.152 21.192C60.728 21.192 61.136 21.28 61.376 21.456C61.632 21.632 61.784 21.864 61.832 22.152C61.896 22.424 61.928 22.712 61.928 23.016V31.464C61.928 31.768 61.896 32.056 61.832 32.328C61.784 32.584 61.632 32.792 61.376 32.952C61.12 33.112 60.704 33.192 60.128 33.192C59.664 33.192 59.312 33.128 59.072 33C58.832 32.872 58.664 32.712 58.568 32.52C58.472 32.328 58.416 32.152 58.4 31.992C58.384 31.816 58.376 31.688 58.376 31.608L58.496 31.224C58.496 31.352 58.408 31.528 58.232 31.752C58.056 31.96 57.784 32.176 57.416 32.4C57.048 32.624 56.592 32.816 56.048 32.976C55.52 33.12 54.896 33.192 54.176 33.192Z" fill="#70FF70"/>
</svg>
