<svg width="71" height="52" viewBox="0 0 71 52" fill="none" xmlns="http://www.w3.org/2000/svg">
<path d="M0.542486 25.6153C-1.45751 3.61533 2.04249 17.6153 11.5425 3.61533H14.0425C22.7091 2.61533 42.4425 0.515328 52.0425 0.115328C64.0425 -0.384672 59.5425 0.615328 66.0425 5.61533C71.2425 9.61533 71.2091 14.282 70.5425 16.1153C69.7091 20.282 67.6425 31.2153 66.0425 41.6153C64.0425 54.6153 60.0425 46.6153 52.0425 50.1153C44.0425 53.6153 24.5425 49.6153 11.5425 50.1153C-1.45751 50.6153 2.54249 47.6153 0.542486 25.6153Z" fill="#4A1C53"/>
<path d="M30.312 35.24C29.896 35.24 29.576 35.16 29.352 35C29.128 34.856 28.96 34.68 28.848 34.472C28.752 34.264 28.656 34.072 28.56 33.896L24.648 25.472C24.504 25.12 24.44 24.816 24.456 24.56C24.488 24.288 24.6 24.056 24.792 23.864C24.984 23.656 25.264 23.48 25.632 23.336C26.256 23.064 26.752 22.992 27.12 23.12C27.488 23.248 27.776 23.576 27.984 24.104L30.336 29.312L32.472 24.488C32.552 24.328 32.648 24.152 32.76 23.96C32.872 23.752 33.04 23.568 33.264 23.408C33.488 23.248 33.8 23.168 34.2 23.168C34.632 23.168 34.96 23.248 35.184 23.408C35.424 23.568 35.6 23.752 35.712 23.96C35.84 24.168 35.936 24.344 36 24.488L38.136 29.336L40.368 24.392C40.624 23.816 40.928 23.424 41.28 23.216C41.632 22.992 42.112 23.008 42.72 23.264C43.28 23.52 43.664 23.824 43.872 24.176C44.096 24.528 44.08 24.968 43.824 25.496L39.864 33.896C39.784 34.088 39.688 34.288 39.576 34.496C39.464 34.704 39.296 34.88 39.072 35.024C38.864 35.168 38.56 35.24 38.16 35.24C37.744 35.24 37.424 35.168 37.2 35.024C36.976 34.896 36.808 34.728 36.696 34.52C36.584 34.312 36.48 34.104 36.384 33.896L34.224 29.024L32.088 33.896C31.976 34.12 31.872 34.336 31.776 34.544C31.68 34.752 31.52 34.92 31.296 35.048C31.088 35.176 30.76 35.24 30.312 35.24Z" fill="#70FF70"/>
</svg>
