<svg width="72" height="53" viewBox="0 0 72 53" fill="none" xmlns="http://www.w3.org/2000/svg">
<path d="M64.5555 43.9998C60.1555 52.7998 48.0555 52.9998 42.5555 51.9998L14.5555 51.9998C11.0555 51.9998 5.05554 48 1.55554 43.9998C-1.94446 39.9996 1.55554 28 1.55554 22.5C1.55555 17 1.55555 16 5.05555 8.49999C8.55555 0.999994 7.55555 -5.59646e-06 11.5555 -5.24677e-06C15.5555 -4.89708e-06 32.5555 1.38571 54.0555 2C71.5555 2.5 64.5555 3 69.5555 8.5C74.5555 14 68.5555 14 69.5555 28C70.5555 42 70.0555 32.9998 64.5555 43.9998Z" fill="#4A1C53"/>
<path d="M33.152 38.872C32.528 38.52 32.176 38.16 32.096 37.792C32.016 37.44 32.144 36.992 32.48 36.448L40.256 23.056C40.592 22.464 40.928 22.12 41.264 22.024C41.6 21.912 42.072 22.024 42.68 22.36C43.288 22.712 43.632 23.064 43.712 23.416C43.792 23.752 43.68 24.184 43.376 24.712L35.576 38.224C35.24 38.8 34.904 39.136 34.568 39.232C34.232 39.344 33.76 39.224 33.152 38.872ZM36.296 33.28L29.936 24.88C29.568 24.368 29.408 23.936 29.456 23.584C29.504 23.216 29.808 22.84 30.368 22.456C30.96 22.04 31.424 21.872 31.76 21.952C32.112 22.016 32.48 22.312 32.864 22.84L37.592 29.08L36.296 33.28Z" fill="#70FF70"/>
</svg>
