<svg width="365" height="52" viewBox="0 0 365 52" fill="none" xmlns="http://www.w3.org/2000/svg">
<path d="M34.4445 3.9054H4.44445C-2.05556 5.40553 1.44446 10.9053 0.444448 12.9053C-0.555561 14.9053 0.444448 18.4053 0.444448 21.9053C0.444448 25.4053 0.944448 35.4053 0.444448 40.9053C-0.0555516 46.4053 6.17483 44.6153 6.17483 48.6153C6.17483 52.6153 9.94446 49.4053 14.9445 50.9053C19.9445 52.4053 42.4445 49.4053 50.4445 49.4053C58.4445 49.4053 61.9445 51.4053 69.4445 50.9053C76.9445 50.4053 91.9445 50.1153 97.9445 48.6153C103.944 47.1153 112.263 49.8799 117.944 49.4053C126.444 48.6952 140.444 50.4053 149.444 49.4053C158.444 48.4053 324.444 49.1153 335.944 48.6153C347.444 48.1153 353.444 44.9053 356.944 44.4053C359.744 44.0053 362.111 39.9053 362.944 37.9053C362.944 31.7386 363.244 18.8053 364.444 16.4053C365.944 13.4053 363.944 7.90527 362.944 5.40527C361.944 2.90527 357.444 3.9054 354.944 2.40527C352.444 0.905144 331.944 2.40527 327.944 2.40527C324.744 2.40527 277.278 3.40536 253.944 3.9054C242.778 3.9054 219.744 3.60538 216.944 2.40527C214.144 1.20517 155.444 0.571983 126.444 0.405403C121.278 0.905403 109.844 1.6054 105.444 0.405403C99.9445 -1.0946 85.4445 1.9054 78.4445 3.9054C71.4445 5.9054 60.9445 5.9054 53.9445 4.9054C48.3445 4.1054 38.6111 3.9054 34.4445 3.9054Z" fill="#70FF70"/>
<path d="M192.8 17.7293C193.328 18.1773 193.608 18.5933 193.64 18.9773C193.672 19.3453 193.472 19.7533 193.04 20.2013L186.44 27.3533V32.3453C186.44 32.6493 186.408 32.9453 186.344 33.2333C186.296 33.5053 186.144 33.7293 185.888 33.9053C185.632 34.0813 185.208 34.1693 184.616 34.1693C184.008 34.1693 183.576 34.0813 183.32 33.9053C183.08 33.7293 182.928 33.4973 182.864 33.2093C182.8 32.9213 182.768 32.6173 182.768 32.2973V27.4733L176 20.2013C175.568 19.7533 175.376 19.3453 175.424 18.9773C175.472 18.5933 175.752 18.1773 176.264 17.7293C176.632 17.4093 176.952 17.2173 177.224 17.1533C177.512 17.0733 177.776 17.1053 178.016 17.2493C178.272 17.3773 178.544 17.6013 178.832 17.9213L184.52 24.0653L190.232 17.9213C190.52 17.5853 190.784 17.3533 191.024 17.2253C191.28 17.0973 191.544 17.0733 191.816 17.1533C192.104 17.2333 192.432 17.4253 192.8 17.7293ZM203.961 34.0973C203.353 34.0973 202.913 33.9773 202.641 33.7373C202.369 33.4813 202.225 33.1933 202.209 32.8733L202.497 32.4413C202.353 32.6973 202.097 32.9533 201.729 33.2093C201.361 33.4653 200.873 33.6813 200.265 33.8573C199.657 34.0173 198.929 34.0973 198.081 34.0973C197.089 34.0973 196.185 33.9453 195.369 33.6413C194.569 33.3373 193.881 32.9133 193.305 32.3693C192.729 31.8093 192.281 31.1693 191.961 30.4493C191.657 29.7133 191.505 28.9213 191.505 28.0733C191.505 27.2413 191.657 26.4653 191.961 25.7453C192.281 25.0253 192.729 24.4013 193.305 23.8733C193.897 23.3293 194.593 22.9053 195.393 22.6013C196.193 22.2973 197.089 22.1453 198.081 22.1453C198.897 22.1453 199.593 22.2253 200.169 22.3853C200.761 22.5453 201.249 22.7533 201.633 23.0093C202.017 23.2493 202.297 23.5053 202.473 23.7773L202.209 23.4413C202.209 23.0413 202.345 22.7213 202.617 22.4813C202.905 22.2413 203.361 22.1213 203.985 22.1213C204.561 22.1213 204.969 22.2093 205.209 22.3853C205.465 22.5613 205.617 22.7933 205.665 23.0813C205.729 23.3693 205.761 23.6733 205.761 23.9933V32.2733C205.761 32.5773 205.729 32.8733 205.665 33.1613C205.617 33.4493 205.465 33.6813 205.209 33.8573C204.969 34.0173 204.553 34.0973 203.961 34.0973ZM198.585 30.7133C199.305 30.7133 199.905 30.6013 200.385 30.3773C200.881 30.1533 201.249 29.8413 201.489 29.4413C201.745 29.0413 201.873 28.5933 201.873 28.0973C201.873 27.5853 201.745 27.1373 201.489 26.7533C201.233 26.3693 200.857 26.0653 200.361 25.8413C199.881 25.6173 199.273 25.5053 198.537 25.5053C197.817 25.5053 197.209 25.6173 196.713 25.8413C196.217 26.0653 195.841 26.3773 195.585 26.7773C195.329 27.1773 195.201 27.6333 195.201 28.1453C195.201 28.6253 195.329 29.0653 195.585 29.4653C195.841 29.8493 196.225 30.1533 196.737 30.3773C197.249 30.6013 197.865 30.7133 198.585 30.7133ZM209.723 28.5533C209.163 28.5533 208.763 28.4813 208.523 28.3373C208.283 28.1933 208.131 28.0093 208.067 27.7853C208.019 27.5453 207.995 27.2813 207.995 26.9933V18.9533C207.995 18.6653 208.019 18.4013 208.067 18.1613C208.131 17.9213 208.283 17.7293 208.523 17.5853C208.779 17.4413 209.187 17.3693 209.747 17.3693C210.307 17.3693 210.707 17.4413 210.947 17.5853C211.187 17.7293 211.331 17.9213 211.379 18.1613C211.443 18.4013 211.475 18.6653 211.475 18.9533V27.0173C211.475 27.2893 211.443 27.5453 211.379 27.7853C211.331 28.0253 211.187 28.2173 210.947 28.3613C210.707 28.4893 210.299 28.5533 209.723 28.5533ZM209.723 34.0733C208.971 34.0733 208.467 33.9293 208.211 33.6413C207.971 33.3533 207.851 32.8653 207.851 32.1773C207.851 31.8573 207.883 31.5613 207.947 31.2893C208.011 31.0013 208.171 30.7693 208.427 30.5933C208.699 30.4013 209.139 30.3053 209.747 30.3053C210.515 30.3053 211.011 30.4493 211.235 30.7373C211.475 31.0253 211.595 31.5133 211.595 32.2013C211.595 32.5213 211.563 32.8253 211.499 33.1133C211.451 33.4013 211.291 33.6333 211.019 33.8093C210.763 33.9853 210.331 34.0733 209.723 34.0733Z" fill="#4A1C53"/>
<path d="M158.194 33.9053C158.194 34.8718 158.978 35.6553 159.944 35.6553C160.911 35.6553 161.694 34.8718 161.694 33.9053L159.944 33.9053L158.194 33.9053ZM159.944 33.8053L158.195 33.7811L158.194 33.7932L158.194 33.8053L159.944 33.8053ZM160.126 18.2403L161.665 17.4068L161.597 17.2826L161.511 17.1708L160.126 18.2403ZM159.944 18.0053L158.194 18.0053L158.194 18.6022L158.559 19.0748L159.944 18.0053ZM161.182 16.6678C160.498 15.9844 159.39 15.9844 158.707 16.6678L147.57 27.8048C146.887 28.4882 146.887 29.5962 147.57 30.2796C148.254 30.9631 149.362 30.9631 150.045 30.2796L159.944 20.3801L169.844 30.2796C170.527 30.9631 171.635 30.9631 172.319 30.2796C173.002 29.5962 173.002 28.4882 172.319 27.8048L161.182 16.6678ZM159.944 33.9053L161.694 33.9053L161.694 33.8053L159.944 33.8053L158.194 33.8053L158.194 33.9053L159.944 33.9053ZM159.944 33.8053L161.694 33.8294C161.717 32.2142 161.789 31.0621 161.897 30.3266L160.166 30.0728L158.434 29.8189C158.292 30.7867 158.217 32.123 158.195 33.7811L159.944 33.8053ZM160.166 30.0728L161.897 30.3266C162.032 29.4092 162.113 28.4905 162.141 27.571L160.392 27.5178L158.643 27.4646C158.619 28.2484 158.549 29.0331 158.434 29.8189L160.166 30.0728ZM160.392 27.5178L162.141 27.571C162.172 26.5585 162.064 25.5507 161.822 24.5513L160.122 24.9628L158.421 25.3743C158.591 26.0782 158.664 26.7737 158.643 27.4646L160.392 27.5178ZM160.122 24.9628L161.822 24.5513C161.712 24.0939 161.745 23.6317 161.974 23.1074L160.37 22.4078L158.766 21.7081C158.251 22.8871 158.119 24.1283 158.421 25.3743L160.122 24.9628ZM160.37 22.4078L161.974 23.1074C162.488 21.9281 162.62 20.6865 162.318 19.4404L160.617 19.8528L158.916 20.2652C159.027 20.7224 158.994 21.1841 158.766 21.7081L160.37 22.4078ZM160.617 19.8528L162.318 19.4404C162.21 18.9977 162.109 18.6145 162.013 18.3009C161.928 18.0213 161.815 17.685 161.665 17.4068L160.126 18.2403L158.587 19.0737C158.563 19.0295 158.564 19.0215 158.586 19.08C158.605 19.1309 158.631 19.2092 158.665 19.3209C158.734 19.5448 158.817 19.8562 158.916 20.2652L160.617 19.8528ZM160.126 18.2403L161.511 17.1708L161.33 16.9358L159.944 18.0053L158.559 19.0748L158.741 19.3098L160.126 18.2403ZM159.944 18.0053L161.694 18.0053L161.694 17.9053L159.944 17.9053L158.194 17.9053L158.194 18.0053L159.944 18.0053Z" fill="#4A1C53"/>
</svg>
