<svg width="196" height="182" viewBox="0 0 196 182" fill="none" xmlns="http://www.w3.org/2000/svg">
<g clip-path="url(#clip0_45_51)">
<path d="M179.713 44.8029H146.204C137.21 44.8029 129.918 52.044 129.918 60.9765V111.728C129.918 120.661 137.21 127.902 146.204 127.902H179.713C188.708 127.902 196 120.661 196 111.728V60.9765C196 52.044 188.708 44.8029 179.713 44.8029Z" fill="#70FF70"/>
<path d="M88.3827 0C118.933 0 145.884 15.5731 161.761 39.2257H147.14C134.63 39.2257 124.489 49.2969 124.489 61.7201V110.613L124.491 110.903C124.648 123.193 134.728 133.107 147.14 133.107H164.808C161.058 139.58 156.474 145.603 151.127 151.007V174.53C151.127 178.592 147.806 181.888 143.718 181.888H128.899C124.81 181.888 121.489 178.592 121.489 174.53V151.254H55.5925V174.169C55.5925 178.229 52.273 181.527 48.1838 181.527H33.3655C29.2763 181.527 25.9564 178.229 25.9564 174.169V151.254H25.8868C9.31184 134.639 1.81767e-05 112.102 0 88.6033C0 39.7018 39.603 5.04002e-06 88.3827 0ZM165.213 44.8029C172.565 57.7245 176.766 72.676 176.766 88.6033C176.766 102.224 173.637 115.521 167.779 127.53H147.14C137.732 127.53 130.105 119.956 130.105 110.613V61.7201C130.105 52.377 137.732 44.8029 147.14 44.8029H165.213ZM60.8819 89.7031C59.5593 100.797 67.3401 110.843 78.2463 112.125C89.1519 113.408 99.0798 105.443 100.402 94.3496C96.4475 99.5099 88.1905 103.105 79.4442 102.077C70.698 101.048 63.5139 95.6381 60.8819 89.7031ZM105.552 62.4281C98.9334 62.4281 93.5676 68.3112 93.5676 75.5685C93.5676 82.8258 98.9334 88.7093 105.552 88.7093C112.171 88.7093 117.537 82.8258 117.537 75.5685C117.537 68.3112 112.171 62.4281 105.552 62.4281ZM62.2058 32.6356C48.3777 32.6356 37.1679 43.8804 37.1679 57.7513C37.1679 71.6223 48.3777 82.8669 62.2058 82.8669C76.0338 82.8669 87.2436 71.6223 87.2436 57.7513C87.2436 43.8804 76.0338 32.6356 62.2058 32.6356Z" fill="url(#paint0_linear_45_51)"/>
</g>
<defs>
<linearGradient id="paint0_linear_45_51" x1="141.574" y1="143.777" x2="61.8959" y2="43.3607" gradientUnits="userSpaceOnUse">
<stop stop-color="#70FF70"/>
<stop offset="0.44" stop-color="#70FF70"/>
<stop offset="1" stop-color="#70FF70"/>
</linearGradient>
<clipPath id="clip0_45_51">
<rect width="196" height="182"/>
</clipPath>
</defs>
</svg>