<svg width="57" height="22" viewBox="0 0 57 22" fill="none" xmlns="http://www.w3.org/2000/svg">
<rect x="1" y="1" width="48" height="20" rx="10" stroke="#4A1C53" stroke-width="2"/>
<path d="M15.32 11.912C15.1707 11.912 15.096 11.8373 15.096 11.688V8.28L14.952 8.392C14.9093 8.424 14.8613 8.44 14.808 8.44C14.7547 8.44 14.7013 8.41333 14.648 8.36L13.496 7.32C13.4427 7.26667 13.416 7.21333 13.416 7.16C13.416 7.096 13.4533 7.04267 13.528 7C14.1893 6.584 14.7333 6.08267 15.16 5.496C15.5867 4.89867 15.9013 4.30667 16.104 3.72C16.1573 3.58133 16.248 3.52267 16.376 3.544L18.008 3.72C18.1787 3.74133 18.2373 3.82133 18.184 3.96C18.1093 4.17333 18.0293 4.376 17.944 4.568H23.784C23.9333 4.568 24.008 4.64267 24.008 4.792V5.944C24.008 6.09333 23.9333 6.168 23.784 6.168H17.048C16.9733 6.27467 16.8933 6.38667 16.808 6.504C16.7333 6.61067 16.6533 6.72267 16.568 6.84H23.288C23.4373 6.84 23.512 6.91467 23.512 7.064V11.688C23.512 11.8373 23.4373 11.912 23.288 11.912H18.792L18.376 12.536H23.08C23.2293 12.536 23.304 12.6107 23.304 12.76V13.736C23.304 13.8427 23.2827 13.9227 23.24 13.976C22.7813 14.744 22.1947 15.4053 21.48 15.96C21.928 16.0667 22.3813 16.1467 22.84 16.2C23.2987 16.2533 23.7413 16.296 24.168 16.328C24.3387 16.3493 24.3973 16.44 24.344 16.6L23.848 17.992C23.8053 18.12 23.7147 18.1733 23.576 18.152C22.8827 18.088 22.184 17.9707 21.48 17.8C20.776 17.6293 20.0933 17.4053 19.432 17.128C18.728 17.4267 17.96 17.6613 17.128 17.832C16.3067 18.0133 15.4267 18.136 14.488 18.2H14.456C14.36 18.2 14.2853 18.1413 14.232 18.024L13.784 16.712C13.7733 16.6907 13.768 16.664 13.768 16.632C13.768 16.5147 13.8373 16.456 13.976 16.456C14.648 16.4453 15.2773 16.4027 15.864 16.328C16.4613 16.2533 17.0053 16.1573 17.496 16.04C17.24 15.8587 17 15.6613 16.776 15.448C16.552 15.2347 16.344 15.0107 16.152 14.776C15.9387 14.936 15.72 15.0853 15.496 15.224C15.272 15.3627 15.0427 15.4907 14.808 15.608C14.744 15.6293 14.7067 15.64 14.696 15.64C14.6213 15.64 14.5573 15.5973 14.504 15.512L13.768 14.328C13.7467 14.296 13.736 14.2587 13.736 14.216C13.736 14.1307 13.784 14.0667 13.88 14.024C14.456 13.8 15.0053 13.5013 15.528 13.128C16.0613 12.744 16.472 12.3387 16.76 11.912H15.32ZM9.704 7.208C9.69333 7.18667 9.68267 7.16533 9.672 7.144C9.672 7.12267 9.672 7.10133 9.672 7.08C9.672 7.00533 9.70933 6.94667 9.784 6.904C10.3493 6.53067 10.8613 6.072 11.32 5.528C11.7893 4.984 12.1573 4.41867 12.424 3.832C12.488 3.68267 12.5893 3.64533 12.728 3.72L13.992 4.376C14.0773 4.42933 14.12 4.488 14.12 4.552C14.12 4.57333 14.1093 4.616 14.088 4.68C13.7253 5.42667 13.24 6.15733 12.632 6.872C12.0347 7.576 11.416 8.16267 10.776 8.632C10.7333 8.664 10.6853 8.68 10.632 8.68C10.568 8.68 10.5147 8.64267 10.472 8.568L9.704 7.208ZM13.176 17.976C13.176 18.1253 13.1013 18.2 12.952 18.2H11.576C11.4267 18.2 11.352 18.1253 11.352 17.976V12.696C11.3093 12.7387 11.208 12.8293 11.048 12.968C10.888 13.096 10.728 13.224 10.568 13.352C10.408 13.4693 10.3013 13.528 10.248 13.528C10.1627 13.528 10.104 13.48 10.072 13.384L9.512 11.8C9.50133 11.7787 9.496 11.7467 9.496 11.704C9.496 11.6187 9.53333 11.5547 9.608 11.512C10.3013 11.064 10.9253 10.5147 11.48 9.864C12.0453 9.20267 12.4933 8.53067 12.824 7.848C12.8773 7.752 12.936 7.704 13 7.704C13.0427 7.704 13.0853 7.72 13.128 7.752L14.248 8.456C14.3653 8.54133 14.3973 8.64267 14.344 8.76C14.1947 9.09067 14.0187 9.42133 13.816 9.752C13.624 10.0827 13.4107 10.4027 13.176 10.712V17.976ZM16.984 8.136V8.808H21.608V8.136H16.984ZM16.984 9.944V10.616H21.608V9.944H16.984ZM17.576 13.928C17.832 14.216 18.1253 14.4773 18.456 14.712C18.7867 14.936 19.1387 15.1333 19.512 15.304C19.8853 15.112 20.2053 14.8987 20.472 14.664C20.7493 14.4293 20.968 14.184 21.128 13.928H17.576ZM33.72 10.6C33.9013 10.6213 33.9547 10.712 33.88 10.872C33.8373 10.9787 33.784 11.0907 33.72 11.208C33.656 11.3147 33.592 11.416 33.528 11.512H38.664C38.8133 11.512 38.888 11.5867 38.888 11.736V17.704C38.888 17.8533 38.8133 17.928 38.664 17.928H27.416C27.2667 17.928 27.192 17.8533 27.192 17.704V11.736C27.192 11.5867 27.2667 11.512 27.416 11.512H31.16C31.2347 11.3947 31.304 11.2773 31.368 11.16C31.432 11.032 31.4853 10.9093 31.528 10.792C31.112 10.9627 30.5253 11.0427 29.768 11.032C29.64 11.032 29.5493 10.968 29.496 10.84L29.096 9.768C29.0853 9.74667 29.08 9.71467 29.08 9.672C29.08 9.56533 29.1493 9.512 29.288 9.512C29.8533 9.52267 30.216 9.46933 30.376 9.352C30.536 9.23467 30.616 9 30.616 8.648V5.768H26.232C26.0827 5.768 26.008 5.69333 26.008 5.544V4.2C26.008 4.05067 26.0827 3.976 26.232 3.976H32.344C32.4933 3.976 32.568 4.05067 32.568 4.2V8.776C32.568 9.14933 32.5307 9.48 32.456 9.768C32.3813 10.0453 32.248 10.2747 32.056 10.456L33.72 10.6ZM33.416 5.768C33.2667 5.768 33.192 5.69333 33.192 5.544V4.2C33.192 4.05067 33.2667 3.976 33.416 3.976H39.592C39.7413 3.976 39.816 4.05067 39.816 4.2V8.872C39.816 9.42667 39.7307 9.87467 39.56 10.216C39.3893 10.5467 39.0853 10.7813 38.648 10.92C38.2213 11.0587 37.6133 11.1227 36.824 11.112C36.6853 11.112 36.5947 11.0533 36.552 10.936L36.136 9.816C36.1253 9.79467 36.12 9.76267 36.12 9.72C36.12 9.61333 36.1947 9.56 36.344 9.56C36.7813 9.57067 37.1067 9.55467 37.32 9.512C37.5333 9.45867 37.672 9.368 37.736 9.24C37.8107 9.10133 37.848 8.92 37.848 8.696V5.768H33.416ZM33.656 7.112C33.5707 7.08 33.528 7.02667 33.528 6.952C33.528 6.89867 33.544 6.85067 33.576 6.808L34.2 5.944C34.2747 5.83733 34.3707 5.8 34.488 5.832C34.5733 5.85333 34.7173 5.90667 34.92 5.992C35.1227 6.06667 35.3413 6.16267 35.576 6.28C35.8107 6.38667 36.008 6.49867 36.168 6.616C36.3387 6.72267 36.424 6.81867 36.424 6.904C36.424 6.968 36.4027 7.02133 36.36 7.064L35.64 7.928C35.5973 7.992 35.544 8.024 35.48 8.024C35.4373 8.024 35.384 8.00267 35.32 7.96C35.1067 7.81067 34.8507 7.66133 34.552 7.512C34.2533 7.36267 33.9547 7.22933 33.656 7.112ZM26.408 7.112C26.312 7.05867 26.264 7 26.264 6.936C26.264 6.89333 26.28 6.85067 26.312 6.808L26.968 5.96C27.0533 5.85333 27.1547 5.816 27.272 5.848C27.3467 5.86933 27.4853 5.92267 27.688 6.008C27.8907 6.09333 28.1093 6.19467 28.344 6.312C28.5787 6.42933 28.776 6.54667 28.936 6.664C29.1067 6.77067 29.192 6.86667 29.192 6.952C29.192 7.00533 29.1707 7.05333 29.128 7.096L28.376 8.024C28.3333 8.07733 28.2853 8.104 28.232 8.104C28.168 8.104 28.1147 8.08267 28.072 8.04C27.848 7.848 27.5867 7.672 27.288 7.512C27 7.352 26.7067 7.21867 26.408 7.112ZM33.08 9.032C33.0693 9.01067 33.064 8.97867 33.064 8.936C33.064 8.85067 33.1227 8.792 33.24 8.76C33.88 8.64267 34.552 8.45067 35.256 8.184C35.9707 7.91733 36.6053 7.61867 37.16 7.288C37.2133 7.256 37.256 7.24 37.288 7.24C37.3733 7.24 37.4213 7.304 37.432 7.432L37.56 8.456V8.52C37.56 8.616 37.528 8.68 37.464 8.712C37.1547 8.904 36.7867 9.10133 36.36 9.304C35.944 9.496 35.5067 9.68267 35.048 9.864C34.6 10.0347 34.1733 10.184 33.768 10.312C33.7573 10.312 33.7467 10.3173 33.736 10.328C33.7253 10.328 33.7093 10.328 33.688 10.328C33.5813 10.328 33.512 10.2747 33.48 10.168L33.08 9.032ZM25.8 9.256C25.7893 9.23467 25.784 9.20267 25.784 9.16C25.784 9.07467 25.8427 9.016 25.96 8.984C26.6213 8.83467 27.2987 8.616 27.992 8.328C28.6853 8.04 29.3093 7.71467 29.864 7.352C29.9173 7.32 29.9653 7.304 30.008 7.304C30.0827 7.304 30.1307 7.36267 30.152 7.48L30.264 8.552V8.632C30.264 8.71733 30.2373 8.78133 30.184 8.824C29.8853 9.03733 29.528 9.256 29.112 9.48C28.7067 9.704 28.2747 9.91733 27.816 10.12C27.3573 10.312 26.9147 10.4773 26.488 10.616C26.4667 10.6267 26.4347 10.632 26.392 10.632C26.296 10.632 26.232 10.5787 26.2 10.472L25.8 9.256ZM29.256 12.968V13.96H36.824V12.968H29.256ZM29.256 15.304V16.376H36.824V15.304H29.256Z" fill="#4A1C53"/>
</svg>
