<svg width="206" height="90" viewBox="0 0 206 90" fill="none" xmlns="http://www.w3.org/2000/svg">
<path d="M7.29599 69.792C4.99198 69.792 3.32798 69.472 2.30398 68.832C1.34398 68.128 0.735985 67.232 0.479985 66.144C0.287984 64.992 0.191984 63.808 0.191984 62.592V29.088C0.191984 27.808 0.287984 26.624 0.479985 25.536C0.735985 24.448 1.37598 23.584 2.39998 22.944C3.42398 22.24 5.08798 21.888 7.39198 21.888C9.75999 21.888 11.424 22.24 12.384 22.944C13.408 23.648 14.016 24.544 14.208 25.632C14.464 26.72 14.592 27.936 14.592 29.28V62.688C14.592 63.904 14.464 65.088 14.208 66.24C14.016 67.328 13.408 68.192 12.384 68.832C11.424 69.472 9.72799 69.792 7.29599 69.792ZM7.29599 14.88C4.92798 14.88 3.23198 14.528 2.20798 13.824C1.18398 13.12 0.543985 12.192 0.287985 11.04C0.0959847 9.888 -1.52588e-05 8.672 -1.52588e-05 7.39201C-1.52588e-05 6.048 0.0959847 4.832 0.287985 3.74401C0.543985 2.59201 1.18398 1.69601 2.20798 1.05601C3.29598 0.352005 5.02398 3.8147e-06 7.39198 3.8147e-06C9.82399 3.8147e-06 11.52 0.352005 12.48 1.05601C13.504 1.76001 14.144 2.68801 14.4 3.84001C14.656 4.99201 14.784 6.20801 14.784 7.488C14.784 8.76801 14.656 9.98401 14.4 11.136C14.144 12.288 13.504 13.216 12.48 13.92C11.52 14.56 9.79199 14.88 7.29599 14.88ZM53.289 69.312C49.129 69.312 45.609 68.704 42.729 67.488C39.913 66.208 37.641 64.48 35.913 62.304C34.249 60.128 33.033 57.6 32.265 54.72C31.497 51.776 31.113 48.64 31.113 45.312C31.177 42.176 31.593 39.2 32.361 36.384C33.129 33.568 34.377 31.072 36.105 28.896C37.833 26.72 40.105 24.992 42.921 23.712C45.737 22.432 49.193 21.792 53.289 21.792C57.257 21.792 60.841 22.4 64.041 23.616C67.305 24.832 70.089 26.528 72.393 28.704C74.761 30.816 76.553 33.344 77.769 36.288C79.049 39.168 79.689 42.272 79.689 45.6C79.689 49.056 79.049 52.224 77.769 55.104C76.553 57.984 74.793 60.512 72.489 62.688C70.185 64.8 67.401 66.432 64.137 67.584C60.937 68.736 57.321 69.312 53.289 69.312ZM30.345 89.664C28.041 89.664 26.377 89.312 25.353 88.608C24.329 87.968 23.689 87.104 23.433 86.016C23.241 84.928 23.145 83.776 23.145 82.56V28.992C23.145 27.776 23.241 26.624 23.433 25.536C23.625 24.448 24.233 23.552 25.257 22.848C26.281 22.144 27.945 21.792 30.249 21.792C32.041 21.792 33.545 22.112 34.761 22.752C36.041 23.392 36.937 24.352 37.449 25.632V82.464C37.577 83.68 37.513 84.832 37.257 85.92C37.001 87.072 36.361 87.968 35.337 88.608C34.313 89.312 32.649 89.664 30.345 89.664ZM51.273 56.16C54.281 56.16 56.777 55.712 58.761 54.816C60.809 53.92 62.345 52.704 63.369 51.168C64.393 49.568 64.905 47.776 64.905 45.792C64.905 43.744 64.393 41.952 63.369 40.416C62.345 38.816 60.841 37.6 58.857 36.768C56.873 35.872 54.377 35.424 51.369 35.424C48.489 35.424 46.025 35.872 43.977 36.768C41.993 37.664 40.489 38.88 39.465 40.416C38.441 41.952 37.929 43.744 37.929 45.792C37.929 47.776 38.441 49.568 39.465 51.168C40.489 52.704 41.993 53.92 43.977 54.816C45.961 55.712 48.393 56.16 51.273 56.16ZM113.416 70.56C109.192 70.56 105.288 69.984 101.704 68.832C98.1837 67.616 95.0797 65.92 92.3917 63.744C89.7677 61.504 87.7517 58.88 86.3437 55.872C84.9357 52.864 84.2317 49.536 84.2317 45.888C84.2317 42.304 84.9037 39.008 86.2477 36C87.5917 32.928 89.5437 30.272 92.1037 28.032C94.6637 25.792 97.7037 24.032 101.224 22.752C104.808 21.472 108.84 20.832 113.32 20.832C119.336 20.832 124.488 21.92 128.776 24.096C133.128 26.272 136.488 29.248 138.856 33.024C141.288 36.736 142.504 40.992 142.504 45.792C142.504 49.504 141.768 52.896 140.296 55.968C138.888 58.976 136.872 61.568 134.248 63.744C131.688 65.92 128.648 67.616 125.128 68.832C121.608 69.984 117.704 70.56 113.416 70.56ZM113.32 56.64C116.2 56.64 118.728 56.224 120.904 55.392C123.08 54.496 124.776 53.248 125.992 51.648C127.208 49.984 127.816 47.968 127.816 45.6C127.816 43.424 127.24 41.536 126.088 39.936C125 38.272 123.368 37.024 121.192 36.192C119.08 35.296 116.424 34.848 113.224 34.848C110.152 34.848 107.56 35.328 105.448 36.288C103.336 37.248 101.704 38.56 100.552 40.224C99.4637 41.824 98.9197 43.648 98.9197 45.696C98.9197 48 99.4957 49.984 100.648 51.648C101.864 53.248 103.56 54.496 105.736 55.392C107.912 56.224 110.44 56.64 113.32 56.64ZM178.914 69.312C174.754 69.312 171.234 68.704 168.354 67.488C165.538 66.208 163.266 64.48 161.538 62.304C159.874 60.128 158.658 57.6 157.89 54.72C157.122 51.776 156.738 48.64 156.738 45.312C156.802 42.176 157.218 39.2 157.986 36.384C158.754 33.568 160.002 31.072 161.73 28.896C163.458 26.72 165.73 24.992 168.546 23.712C171.362 22.432 174.818 21.792 178.914 21.792C182.882 21.792 186.466 22.4 189.666 23.616C192.93 24.832 195.714 26.528 198.018 28.704C200.386 30.816 202.178 33.344 203.394 36.288C204.674 39.168 205.314 42.272 205.314 45.6C205.314 49.056 204.674 52.224 203.394 55.104C202.178 57.984 200.418 60.512 198.114 62.688C195.81 64.8 193.026 66.432 189.762 67.584C186.562 68.736 182.946 69.312 178.914 69.312ZM155.97 89.664C153.666 89.664 152.002 89.312 150.978 88.608C149.954 87.968 149.314 87.104 149.058 86.016C148.866 84.928 148.77 83.776 148.77 82.56V28.992C148.77 27.776 148.866 26.624 149.058 25.536C149.25 24.448 149.858 23.552 150.882 22.848C151.906 22.144 153.57 21.792 155.874 21.792C157.666 21.792 159.17 22.112 160.386 22.752C161.666 23.392 162.562 24.352 163.074 25.632V82.464C163.202 83.68 163.138 84.832 162.882 85.92C162.626 87.072 161.986 87.968 160.962 88.608C159.938 89.312 158.274 89.664 155.97 89.664ZM176.898 56.16C179.906 56.16 182.402 55.712 184.386 54.816C186.434 53.92 187.97 52.704 188.994 51.168C190.018 49.568 190.53 47.776 190.53 45.792C190.53 43.744 190.018 41.952 188.994 40.416C187.97 38.816 186.466 37.6 184.482 36.768C182.498 35.872 180.002 35.424 176.994 35.424C174.114 35.424 171.65 35.872 169.602 36.768C167.618 37.664 166.114 38.88 165.09 40.416C164.066 41.952 163.554 43.744 163.554 45.792C163.554 47.776 164.066 49.568 165.09 51.168C166.114 52.704 167.618 53.92 169.602 54.816C171.586 55.712 174.018 56.16 176.898 56.16Z" fill="#70FF70"/>
</svg>
