<svg width="369" height="245" viewBox="0 0 369 245" fill="none" xmlns="http://www.w3.org/2000/svg">
<path d="M2.37713 46.9957C4.2399 33.2789 14.7112 22.315 28.328 19.8242L41.4969 17.4152C44.8115 16.8089 48.2011 16.7299 51.5403 17.1811L98.9006 23.5812C100.962 23.8597 103.046 23.9366 105.122 23.8108L151.5 21H190H217.088C220.671 21 224.228 20.3984 227.611 19.2203L264.229 6.46931C273.265 3.32302 283.234 4.38476 291.404 9.36346L303.896 16.9758C308.236 19.6205 313.144 21.1935 318.213 21.5643L326.321 22.1577C341.086 23.238 353.182 34.3052 355.568 48.9161L358.616 67.5834C359.201 71.1683 359.172 74.8267 358.529 78.4017L352.747 110.561C351.926 115.132 352.109 119.827 353.284 124.32L362.945 161.261C366.292 174.059 361.42 187.598 350.684 195.327L336.359 205.641C332.824 208.187 328.806 209.984 324.551 210.922L271.997 222.509C269.014 223.166 266.141 224.247 263.465 225.719L239.98 238.636C238.34 239.538 236.552 240.14 234.7 240.413C222.564 242.204 213.148 230.018 217.942 218.726L223.672 205.228C227.24 196.825 225.718 187.123 219.748 180.216L197.865 154.894C195.636 152.315 193.009 150.108 190.083 148.357L143.588 120.54C138.622 117.569 132.944 116 127.158 116H76.1334C68.0481 116 60.2978 119.23 54.6053 124.971C35.9443 143.793 3.81658 131.292 2.78471 104.808L2.5 97.5L0.255476 67.8723C0.0856315 65.6303 0.152542 63.3767 0.455099 61.1488L2.37713 46.9957Z" fill="#70FF70"/>
<path d="M20.152 68.304C19.8533 68.304 19.648 68.136 19.536 67.8L17.128 62.032C17.0907 61.9573 17.072 61.8453 17.072 61.696C17.072 61.36 17.2587 61.136 17.632 61.024C21.888 59.6053 25.8267 57.6267 29.448 55.088C33.0693 52.5493 36.112 49.7493 38.576 46.688C38.8373 46.3893 39.1547 46.24 39.528 46.24H46.248C46.696 46.24 47.0133 46.3893 47.2 46.688C49.7387 49.8613 52.856 52.6427 56.552 55.032C60.2853 57.4213 64.224 59.3253 68.368 60.744C68.8907 60.9307 69.0587 61.2667 68.872 61.752L66.464 67.464C66.24 67.9867 65.8853 68.136 65.4 67.912C63.8693 67.2773 62.3387 66.6053 60.808 65.896C59.2773 65.1493 57.784 64.3467 56.328 63.488V67.072C56.328 67.5947 56.0667 67.856 55.544 67.856H30.736C30.2133 67.856 29.952 67.5947 29.952 67.072V63.6C28.4587 64.5333 26.9093 65.392 25.304 66.176C23.6987 66.96 22.112 67.6507 20.544 68.248L20.152 68.304ZM53.36 61.64C49.1413 58.84 45.6693 55.8533 42.944 52.68C41.7867 54.1733 40.3493 55.6853 38.632 57.216C36.9147 58.7467 35.048 60.2213 33.032 61.64H53.36ZM22.448 73.12C22.448 72.5973 22.7093 72.336 23.232 72.336H63.776C64.2987 72.336 64.56 72.5973 64.56 73.12V77.712C64.56 78.1227 64.5227 78.4027 64.448 78.552C62.992 81.464 60.92 84.1893 58.232 86.728C55.5813 89.2293 52.2587 91.376 48.264 93.168C44.2693 94.9973 39.528 96.3227 34.04 97.144H33.816C33.48 97.144 33.2187 96.976 33.032 96.64L30.064 90.872C29.9893 90.648 29.952 90.5173 29.952 90.48C29.952 90.144 30.176 89.9573 30.624 89.92C36.3733 89.1733 41.3387 87.904 45.52 86.112C49.7387 84.32 52.9307 81.9307 55.096 78.944H23.232C22.7093 78.944 22.448 78.6827 22.448 78.16V73.12ZM78.344 95.976C77.896 95.976 77.672 95.752 77.672 95.304V54.648C77.672 54.2 77.896 53.976 78.344 53.976H111.656C112.104 53.976 112.328 54.2 112.328 54.648V95.304C112.328 95.752 112.104 95.976 111.656 95.976H78.344ZM106.04 59.784H83.96V71.352H106.04V59.784ZM106.04 77.256H83.96V90.024H106.04V77.256ZM176.472 69.576C176.344 69.9173 176.109 70.088 175.768 70.088C175.597 70.088 175.235 69.896 174.68 69.512C174.125 69.128 173.528 68.68 172.888 68.168C172.248 67.6133 171.651 67.1013 171.096 66.632C170.584 66.1627 170.243 65.8427 170.072 65.672C170.029 68.6587 169.987 71.6453 169.944 74.632C169.901 77.6187 169.795 80.4773 169.624 83.208C169.453 86.792 168.813 89.5867 167.704 91.592C166.637 93.5973 164.973 95.0053 162.712 95.816C160.493 96.6267 157.528 97.032 153.816 97.032H151.704C151.192 96.9467 150.851 96.6907 150.68 96.264L148.312 89.608L148.248 89.224C148.248 88.7973 148.547 88.584 149.144 88.584L151.96 88.712C154.307 88.712 156.12 88.4987 157.4 88.072C158.68 87.6453 159.597 86.9413 160.152 85.96C160.749 84.936 161.112 83.592 161.24 81.928C161.411 80.3493 161.517 78.6853 161.56 76.936C161.603 75.1867 161.624 73.5013 161.624 71.88V69.064H151.32C150.936 73.7147 149.869 77.96 148.12 81.8C146.371 85.5973 143.853 88.8613 140.568 91.592C137.325 94.28 133.187 96.328 128.152 97.736C128.067 97.7787 127.96 97.8 127.832 97.8C127.491 97.8 127.213 97.6293 127 97.288L123.032 91.208C122.904 90.9947 122.84 90.824 122.84 90.696C122.84 90.3973 123.075 90.184 123.544 90.056C129.688 88.648 134.296 86.1947 137.368 82.696C140.44 79.1547 142.253 74.6107 142.808 69.064H134.104C133.507 69.064 133.208 68.7653 133.208 68.168V64.84C132.995 65.0533 132.568 65.4587 131.928 66.056C131.331 66.6107 130.669 67.208 129.944 67.848C129.219 68.488 128.536 69.0427 127.896 69.512C127.299 69.9387 126.872 70.152 126.616 70.152C126.36 70.152 126.125 70.0027 125.912 69.704L121.816 63.048C121.731 62.792 121.688 62.6213 121.688 62.536C121.688 62.2373 121.837 62.0027 122.136 61.832C124.739 60.3387 127.107 58.4613 129.24 56.2C131.416 53.896 133.315 51.4 134.936 48.712C136.557 45.9813 137.859 43.272 138.84 40.584C139.053 39.9867 139.437 39.7947 139.992 40.008L146.456 42.312C146.968 42.568 147.139 42.9733 146.968 43.528C145.773 46.6427 144.28 49.7147 142.488 52.744C140.739 55.7307 138.755 58.5467 136.536 61.192H165.784C163.437 58.4613 161.325 55.56 159.448 52.488C157.571 49.416 155.992 46.3867 154.712 43.4C154.627 43.144 154.584 42.9947 154.584 42.952C154.584 42.6107 154.797 42.376 155.224 42.248L161.624 39.944C161.709 39.9013 161.837 39.88 162.008 39.88C162.349 39.88 162.605 40.072 162.776 40.456C164.696 44.7653 167.128 48.7547 170.072 52.424C173.016 56.0933 176.301 59.0373 179.928 61.256C180.397 61.512 180.504 61.9173 180.248 62.472L176.472 69.576ZM202.98 85.404C202.716 85.38 202.548 85.224 202.476 84.936L201.612 81.012C201.588 80.964 201.576 80.916 201.576 80.868C201.576 80.532 201.756 80.424 202.116 80.544C202.812 80.712 203.46 80.832 204.06 80.904C204.684 80.976 205.26 81.012 205.788 81.012C206.532 81.012 207.204 80.952 207.804 80.832C208.404 80.688 208.944 80.508 209.424 80.292C210.168 79.908 210.732 79.404 211.116 78.78C211.5 78.132 211.692 77.472 211.692 76.8C211.692 75.888 211.452 75.168 210.972 74.64C210.492 74.112 209.88 73.74 209.136 73.524C208.392 73.308 207.636 73.2 206.868 73.2C205.5 73.2 203.94 73.416 202.188 73.848C200.46 74.28 198.684 74.808 196.86 75.432C197.772 78.6 198.648 81.756 199.488 84.9C200.352 88.044 201.156 91.068 201.9 93.972C201.924 94.02 201.936 94.08 201.936 94.152C201.936 94.368 201.804 94.512 201.54 94.584L197.688 95.52H197.508C197.292 95.52 197.148 95.388 197.076 95.124C196.788 93.9 196.452 92.544 196.068 91.056C195.708 89.568 195.312 88.02 194.88 86.412C194.448 84.804 194.016 83.208 193.584 81.624C193.176 80.04 192.768 78.54 192.36 77.124L187.104 79.284C187.032 79.308 186.948 79.32 186.852 79.32C186.66 79.32 186.528 79.212 186.456 78.996L185.124 75.36C185.1 75.288 185.088 75.204 185.088 75.108C185.088 74.916 185.196 74.784 185.412 74.712C186.252 74.4 187.152 74.076 188.112 73.74C189.072 73.38 190.068 73.032 191.1 72.696C190.764 71.568 190.44 70.488 190.128 69.456C189.816 68.4 189.504 67.404 189.192 66.468C189.168 66.42 189.156 66.348 189.156 66.252C189.156 66.012 189.276 65.88 189.516 65.856L193.404 64.92H193.584C193.8 64.92 193.956 65.04 194.052 65.28C194.388 66.24 194.7 67.212 194.988 68.196C195.276 69.18 195.576 70.164 195.888 71.148C196.848 70.86 197.808 70.584 198.768 70.32C199.728 70.056 200.676 69.828 201.612 69.636C201.396 68.82 201.168 68.004 200.928 67.188C200.688 66.348 200.4 65.496 200.064 64.632C200.04 64.584 200.028 64.512 200.028 64.416C200.028 64.2 200.16 64.068 200.424 64.02L204.312 63.156H204.492C204.708 63.156 204.852 63.276 204.924 63.516C205.236 64.404 205.512 65.292 205.752 66.18C206.016 67.068 206.268 67.968 206.508 68.88L207.588 68.844C209.148 68.844 210.624 69.156 212.016 69.78C213.432 70.38 214.584 71.28 215.472 72.48C216.36 73.656 216.804 75.096 216.804 76.8C216.804 78.288 216.372 79.74 215.508 81.156C214.644 82.572 213.36 83.7 211.656 84.54C210.12 85.332 208.272 85.728 206.112 85.728C205.104 85.728 204.06 85.62 202.98 85.404ZM224.344 86.504C224.237 86.5893 224.131 86.632 224.024 86.632C223.896 86.632 223.779 86.568 223.672 86.44L221.624 83.592C221.539 83.464 221.496 83.368 221.496 83.304C221.496 83.176 221.571 83.0587 221.72 82.952C224.813 80.904 227.587 79.048 230.04 77.384C232.493 75.6987 234.819 74.0987 237.016 72.584C235.245 72.6267 233.453 72.68 231.64 72.744C229.827 72.7867 228.077 72.8293 226.392 72.872C226.093 72.872 225.944 72.7227 225.944 72.424L225.912 69.16C225.912 68.8613 226.061 68.712 226.36 68.712H243.928C244.227 68.712 244.376 68.8613 244.376 69.16L244.408 71.912C244.408 72.1467 244.312 72.328 244.12 72.456L235.864 77.832C236.867 77.64 237.848 77.544 238.808 77.544C240.003 77.544 241.155 77.7147 242.264 78.056C243.395 78.376 244.397 78.8667 245.272 79.528C246.168 80.1893 246.872 81.0107 247.384 81.992C247.917 82.9733 248.184 84.1253 248.184 85.448C248.184 86.92 247.757 88.3813 246.904 89.832C246.051 91.2613 244.739 92.4453 242.968 93.384C241.987 93.8747 240.845 94.2587 239.544 94.536C238.264 94.8133 236.963 94.952 235.64 94.952C234.467 94.952 233.336 94.8347 232.248 94.6C231.181 94.3653 230.253 93.992 229.464 93.48C228.611 92.9253 227.96 92.2533 227.512 91.464C227.085 90.6533 226.872 89.8427 226.872 89.032C226.872 87.9653 227.149 87.08 227.704 86.376C228.259 85.6507 228.973 85.1067 229.848 84.744C230.744 84.3813 231.672 84.2 232.632 84.2C233.699 84.2 234.712 84.4347 235.672 84.904C236.653 85.3733 237.432 86.0987 238.008 87.08C238.605 88.04 238.84 89.288 238.712 90.824C239.523 90.568 240.323 90.2267 241.112 89.8C241.901 89.352 242.552 88.7867 243.064 88.104C243.597 87.4 243.864 86.5787 243.864 85.64C243.864 84.744 243.629 83.9867 243.16 83.368C242.712 82.7493 242.115 82.248 241.368 81.864C240.643 81.48 239.864 81.2027 239.032 81.032C238.221 80.8613 237.453 80.776 236.728 80.776C235.427 80.776 234.04 81 232.568 81.448C231.117 81.8747 229.635 82.5893 228.12 83.592L224.344 86.504ZM230.552 88.776C230.552 89.352 230.797 89.832 231.288 90.216C231.693 90.6 232.205 90.888 232.824 91.08C233.443 91.2507 234.115 91.3467 234.84 91.368C234.925 91.048 234.968 90.7173 234.968 90.376C234.968 89.416 234.68 88.6587 234.104 88.104C233.528 87.5493 232.92 87.272 232.28 87.272C231.832 87.272 231.427 87.4 231.064 87.656C230.723 87.912 230.552 88.2853 230.552 88.776Z" fill="#4A1C53"/>
<path d="M263.432 70.7598C262.554 70.5778 262.207 70.0482 262.389 69.1708L271.571 19.7007C271.753 18.8233 272.282 18.4756 273.16 18.6576L283.782 20.8607C284.659 21.0426 285.007 21.5723 284.825 22.4496L273.575 71.4909C273.393 72.3682 272.863 72.7159 271.986 72.5339L263.432 70.7598ZM256.416 85.6778C256.91 83.2965 258.09 81.5477 259.955 80.4313C261.896 79.2652 264.026 78.9226 266.345 79.4035C268.726 79.8974 270.544 81.0589 271.799 82.8878C273.067 84.6541 273.454 86.7278 272.96 89.1092C272.479 91.4278 271.299 93.1767 269.421 94.3557C267.529 95.5974 265.393 95.9714 263.011 95.4775C260.693 94.9965 258.881 93.8038 257.577 91.8992C256.322 90.0703 255.935 87.9965 256.416 85.6778Z" fill="#4A1C53"/>
<path d="M316.972 50.125C329.548 50.1251 339.818 60.5482 339.818 73.5C339.818 86.4518 329.548 96.8749 316.972 96.875C304.396 96.875 294.125 86.4518 294.125 73.5C294.125 60.5482 304.396 50.125 316.972 50.125Z" stroke="#4A1C53" stroke-width="4.25"/>
<path d="M303.445 71.375C302.272 71.375 301.32 72.3264 301.32 73.5C301.32 74.6736 302.272 75.625 303.445 75.625V73.5V71.375ZM331.48 75.0026C332.31 74.1727 332.31 72.8273 331.48 71.9974L317.957 58.474C317.127 57.6441 315.781 57.6441 314.951 58.474C314.121 59.3038 314.121 60.6493 314.951 61.4792L326.972 73.5L314.951 85.5208C314.121 86.3507 314.121 87.6962 314.951 88.526C315.781 89.3559 317.127 89.3559 317.957 88.526L331.48 75.0026ZM303.445 73.5V75.625H329.977V73.5V71.375H303.445V73.5Z" fill="#4A1C53"/>
<rect x="212" y="120" width="50" height="22" rx="11" fill="#4A1C53"/>
<path d="M221.528 135.64C221.496 135.587 221.48 135.544 221.48 135.512C221.48 135.448 221.517 135.389 221.592 135.336C222.051 135.027 222.509 134.664 222.968 134.248C223.427 133.821 223.843 133.363 224.216 132.872H222.264C222.115 132.872 222.04 132.797 222.04 132.648V131.32C222.04 131.171 222.115 131.096 222.264 131.096H224.664V130.072H222.072C221.923 130.072 221.848 129.997 221.848 129.848V128.552C221.848 128.403 221.923 128.328 222.072 128.328H223.176C223.123 128.04 223.059 127.752 222.984 127.464C222.92 127.165 222.851 127.165 222.776 126.568H222.296C222.147 126.568 222.072 126.493 222.072 126.344V125.048C222.072 124.899 222.147 124.824 222.296 124.824H224.616V123.832C224.616 123.683 224.691 123.608 224.84 123.608H226.36C226.509 123.608 226.584 123.683 226.584 123.832V124.824H228.904C229.053 124.824 229.128 124.899 229.128 125.048V126.344C229.128 126.493 229.053 126.568 228.904 126.568H228.472C228.355 127.165 228.216 127.752 228.056 128.328H229.064C229.213 128.328 229.288 128.403 229.288 128.552V129.848C229.288 129.997 229.213 130.072 229.064 130.072H226.52V131.096H228.824C228.973 131.096 229.048 131.171 229.048 131.32V132.648C229.048 132.797 228.973 132.872 228.824 132.872H226.984C227.272 133.235 227.587 133.565 227.928 133.864C228.269 134.152 228.616 134.408 228.968 134.632C229.043 134.675 229.08 134.733 229.08 134.808C229.08 134.851 229.064 134.899 229.032 134.952L228.152 136.152C228.099 136.227 228.045 136.264 227.992 136.264C227.949 136.264 227.901 136.237 227.848 136.184C227.368 135.747 226.92 135.224 226.504 134.616L226.552 137.976C226.552 138.125 226.477 138.2 226.328 138.2H224.856C224.707 138.2 224.632 138.125 224.632 137.976L224.664 134.84C224.387 135.277 224.072 135.693 223.72 136.088C223.379 136.472 223.021 136.824 222.648 137.144C222.605 137.187 222.557 137.208 222.504 137.208C222.44 137.208 222.387 137.171 222.344 137.096L221.528 135.64ZM230.344 137.88C230.269 137.987 230.168 138.024 230.04 137.992L228.456 137.48C228.349 137.448 228.296 137.395 228.296 137.32C228.296 137.277 228.312 137.235 228.344 137.192C228.803 136.541 229.139 135.816 229.352 135.016C229.565 134.205 229.704 133.325 229.768 132.376C229.832 131.427 229.864 130.403 229.864 129.304V128.728L229.832 124.712C229.832 124.563 229.907 124.488 230.056 124.488C230.568 124.477 231.128 124.445 231.736 124.392C232.355 124.328 232.979 124.243 233.608 124.136C234.237 124.029 234.813 123.896 235.336 123.736L235.416 123.72C235.512 123.72 235.576 123.773 235.608 123.88L236.072 125.512C236.072 125.608 236.013 125.672 235.896 125.704C235.448 125.832 234.973 125.933 234.472 126.008C233.981 126.083 233.501 126.136 233.032 126.168C232.563 126.189 232.141 126.205 231.768 126.216L231.784 128.36H236.104C236.253 128.36 236.328 128.435 236.328 128.584V130.12C236.328 130.269 236.253 130.344 236.104 130.344H235.096V137.976C235.096 138.125 235.021 138.2 234.872 138.2H233.304C233.155 138.2 233.08 138.125 233.08 137.976V130.344H231.784C231.773 131.208 231.731 132.093 231.656 133C231.581 133.896 231.443 134.76 231.24 135.592C231.037 136.424 230.739 137.187 230.344 137.88ZM224.92 128.328H226.28C226.365 128.04 226.44 127.747 226.504 127.448C226.579 127.149 226.637 126.856 226.68 126.568H224.552L224.92 128.328ZM239.128 138.024C239.085 138.077 239.037 138.104 238.984 138.104C238.92 138.104 238.867 138.077 238.824 138.024L237.672 136.792C237.629 136.739 237.608 136.685 237.608 136.632C237.608 136.568 237.629 136.515 237.672 136.472C238.739 135.373 239.432 133.795 239.752 131.736H238.024C237.875 131.736 237.8 131.661 237.8 131.512V130.04C237.8 129.891 237.875 129.816 238.024 129.816H239.928L239.944 128.872V127.848H238.344C238.195 127.848 238.12 127.773 238.12 127.624V126.168C238.12 126.019 238.195 125.944 238.344 125.944H239.944V123.832C239.944 123.683 240.019 123.608 240.168 123.608H241.752C241.901 123.608 241.976 123.683 241.976 123.832V125.944H243.4C243.549 125.944 243.624 126.019 243.624 126.168V127.624C243.624 127.773 243.549 127.848 243.4 127.848H241.976V128.872L241.944 129.816H243.56C243.709 129.816 243.784 129.891 243.784 130.04V131.512C243.784 131.661 243.709 131.736 243.56 131.736H242.136C242.381 132.301 242.669 132.819 243 133.288C243.341 133.747 243.693 134.136 244.056 134.456C244.109 134.509 244.136 134.563 244.136 134.616C244.136 134.68 244.115 134.733 244.072 134.776L243.016 135.96C242.963 136.013 242.909 136.04 242.856 136.04C242.803 136.04 242.749 136.013 242.696 135.96C242.429 135.64 242.163 135.288 241.896 134.904C241.64 134.509 241.405 134.083 241.192 133.624C240.989 134.467 240.712 135.272 240.36 136.04C240.019 136.808 239.608 137.469 239.128 138.024ZM242.392 137.032C242.349 136.989 242.328 136.941 242.328 136.888C242.328 136.813 242.376 136.76 242.472 136.728C243.4 136.419 244.072 135.955 244.488 135.336C244.915 134.707 245.149 133.96 245.192 133.096H244.44C244.291 133.096 244.216 133.021 244.216 132.872V124.264C244.216 124.115 244.291 124.04 244.44 124.04H251.304C251.453 124.04 251.528 124.115 251.528 124.264V132.872C251.528 133.021 251.453 133.096 251.304 133.096H249.64V135.8C249.64 135.939 249.667 136.045 249.72 136.12C249.784 136.195 249.891 136.243 250.04 136.264C250.093 136.264 250.152 136.269 250.216 136.28C250.28 136.28 250.344 136.275 250.408 136.264C250.653 136.232 250.803 136.051 250.856 135.72C250.92 135.379 250.957 134.947 250.968 134.424C250.968 134.232 251.053 134.173 251.224 134.248L252.2 134.68C252.317 134.733 252.376 134.824 252.376 134.952C252.365 135.368 252.339 135.763 252.296 136.136C252.264 136.509 252.179 136.835 252.04 137.112C251.901 137.4 251.667 137.624 251.336 137.784C251.016 137.944 250.557 138.024 249.96 138.024C249.629 138.024 249.293 137.997 248.952 137.944C248.611 137.901 248.323 137.784 248.088 137.592C247.864 137.4 247.752 137.085 247.752 136.648V133.096H247.016C246.952 134.291 246.669 135.325 246.168 136.2C245.677 137.064 244.867 137.731 243.736 138.2C243.693 138.221 243.656 138.232 243.624 138.232C243.56 138.232 243.496 138.2 243.432 138.136L242.392 137.032ZM249.592 125.672H246.168V126.744H249.592V125.672ZM249.592 128.136H246.168V129.064H249.592V128.136ZM249.592 130.44H246.168V131.576H249.592V130.44Z" fill="#70FF70"/>
<rect x="236" y="173" width="48" height="20" rx="10" stroke="#4A1C53" stroke-width="2"/>
<path d="M250.32 183.912C250.171 183.912 250.096 183.837 250.096 183.688V180.28L249.952 180.392C249.909 180.424 249.861 180.44 249.808 180.44C249.755 180.44 249.701 180.413 249.648 180.36L248.496 179.32C248.443 179.267 248.416 179.213 248.416 179.16C248.416 179.096 248.453 179.043 248.528 179C249.189 178.584 249.733 178.083 250.16 177.496C250.587 176.899 250.901 176.307 251.104 175.72C251.157 175.581 251.248 175.523 251.376 175.544L253.008 175.72C253.179 175.741 253.237 175.821 253.184 175.96C253.109 176.173 253.029 176.376 252.944 176.568H258.784C258.933 176.568 259.008 176.643 259.008 176.792V177.944C259.008 178.093 258.933 178.168 258.784 178.168H252.048C251.973 178.275 251.893 178.387 251.808 178.504C251.733 178.611 251.653 178.723 251.568 178.84H258.288C258.437 178.84 258.512 178.915 258.512 179.064V183.688C258.512 183.837 258.437 183.912 258.288 183.912H253.792L253.376 184.536H258.08C258.229 184.536 258.304 184.611 258.304 184.76V185.736C258.304 185.843 258.283 185.923 258.24 185.976C257.781 186.744 257.195 187.405 256.48 187.96C256.928 188.067 257.381 188.147 257.84 188.2C258.299 188.253 258.741 188.296 259.168 188.328C259.339 188.349 259.397 188.44 259.344 188.6L258.848 189.992C258.805 190.12 258.715 190.173 258.576 190.152C257.883 190.088 257.184 189.971 256.48 189.8C255.776 189.629 255.093 189.405 254.432 189.128C253.728 189.427 252.96 189.661 252.128 189.832C251.307 190.013 250.427 190.136 249.488 190.2H249.456C249.36 190.2 249.285 190.141 249.232 190.024L248.784 188.712C248.773 188.691 248.768 188.664 248.768 188.632C248.768 188.515 248.837 188.456 248.976 188.456C249.648 188.445 250.277 188.403 250.864 188.328C251.461 188.253 252.005 188.157 252.496 188.04C252.24 187.859 252 187.661 251.776 187.448C251.552 187.235 251.344 187.011 251.152 186.776C250.939 186.936 250.72 187.085 250.496 187.224C250.272 187.363 250.043 187.491 249.808 187.608C249.744 187.629 249.707 187.64 249.696 187.64C249.621 187.64 249.557 187.597 249.504 187.512L248.768 186.328C248.747 186.296 248.736 186.259 248.736 186.216C248.736 186.131 248.784 186.067 248.88 186.024C249.456 185.8 250.005 185.501 250.528 185.128C251.061 184.744 251.472 184.339 251.76 183.912H250.32ZM244.704 179.208C244.693 179.187 244.683 179.165 244.672 179.144C244.672 179.123 244.672 179.101 244.672 179.08C244.672 179.005 244.709 178.947 244.784 178.904C245.349 178.531 245.861 178.072 246.32 177.528C246.789 176.984 247.157 176.419 247.424 175.832C247.488 175.683 247.589 175.645 247.728 175.72L248.992 176.376C249.077 176.429 249.12 176.488 249.12 176.552C249.12 176.573 249.109 176.616 249.088 176.68C248.725 177.427 248.24 178.157 247.632 178.872C247.035 179.576 246.416 180.163 245.776 180.632C245.733 180.664 245.685 180.68 245.632 180.68C245.568 180.68 245.515 180.643 245.472 180.568L244.704 179.208ZM248.176 189.976C248.176 190.125 248.101 190.2 247.952 190.2H246.576C246.427 190.2 246.352 190.125 246.352 189.976V184.696C246.309 184.739 246.208 184.829 246.048 184.968C245.888 185.096 245.728 185.224 245.568 185.352C245.408 185.469 245.301 185.528 245.248 185.528C245.163 185.528 245.104 185.48 245.072 185.384L244.512 183.8C244.501 183.779 244.496 183.747 244.496 183.704C244.496 183.619 244.533 183.555 244.608 183.512C245.301 183.064 245.925 182.515 246.48 181.864C247.045 181.203 247.493 180.531 247.824 179.848C247.877 179.752 247.936 179.704 248 179.704C248.043 179.704 248.085 179.72 248.128 179.752L249.248 180.456C249.365 180.541 249.397 180.643 249.344 180.76C249.195 181.091 249.019 181.421 248.816 181.752C248.624 182.083 248.411 182.403 248.176 182.712V189.976ZM251.984 180.136V180.808H256.608V180.136H251.984ZM251.984 181.944V182.616H256.608V181.944H251.984ZM252.576 185.928C252.832 186.216 253.125 186.477 253.456 186.712C253.787 186.936 254.139 187.133 254.512 187.304C254.885 187.112 255.205 186.899 255.472 186.664C255.749 186.429 255.968 186.184 256.128 185.928H252.576ZM268.72 182.6C268.901 182.621 268.955 182.712 268.88 182.872C268.837 182.979 268.784 183.091 268.72 183.208C268.656 183.315 268.592 183.416 268.528 183.512H273.664C273.813 183.512 273.888 183.587 273.888 183.736V189.704C273.888 189.853 273.813 189.928 273.664 189.928H262.416C262.267 189.928 262.192 189.853 262.192 189.704V183.736C262.192 183.587 262.267 183.512 262.416 183.512H266.16C266.235 183.395 266.304 183.277 266.368 183.16C266.432 183.032 266.485 182.909 266.528 182.792C266.112 182.963 265.525 183.043 264.768 183.032C264.64 183.032 264.549 182.968 264.496 182.84L264.096 181.768C264.085 181.747 264.08 181.715 264.08 181.672C264.08 181.565 264.149 181.512 264.288 181.512C264.853 181.523 265.216 181.469 265.376 181.352C265.536 181.235 265.616 181 265.616 180.648V177.768H261.232C261.083 177.768 261.008 177.693 261.008 177.544V176.2C261.008 176.051 261.083 175.976 261.232 175.976H267.344C267.493 175.976 267.568 176.051 267.568 176.2V180.776C267.568 181.149 267.531 181.48 267.456 181.768C267.381 182.045 267.248 182.275 267.056 182.456L268.72 182.6ZM268.416 177.768C268.267 177.768 268.192 177.693 268.192 177.544V176.2C268.192 176.051 268.267 175.976 268.416 175.976H274.592C274.741 175.976 274.816 176.051 274.816 176.2V180.872C274.816 181.427 274.731 181.875 274.56 182.216C274.389 182.547 274.085 182.781 273.648 182.92C273.221 183.059 272.613 183.123 271.824 183.112C271.685 183.112 271.595 183.053 271.552 182.936L271.136 181.816C271.125 181.795 271.12 181.763 271.12 181.72C271.12 181.613 271.195 181.56 271.344 181.56C271.781 181.571 272.107 181.555 272.32 181.512C272.533 181.459 272.672 181.368 272.736 181.24C272.811 181.101 272.848 180.92 272.848 180.696V177.768H268.416ZM268.656 179.112C268.571 179.08 268.528 179.027 268.528 178.952C268.528 178.899 268.544 178.851 268.576 178.808L269.2 177.944C269.275 177.837 269.371 177.8 269.488 177.832C269.573 177.853 269.717 177.907 269.92 177.992C270.123 178.067 270.341 178.163 270.576 178.28C270.811 178.387 271.008 178.499 271.168 178.616C271.339 178.723 271.424 178.819 271.424 178.904C271.424 178.968 271.403 179.021 271.36 179.064L270.64 179.928C270.597 179.992 270.544 180.024 270.48 180.024C270.437 180.024 270.384 180.003 270.32 179.96C270.107 179.811 269.851 179.661 269.552 179.512C269.253 179.363 268.955 179.229 268.656 179.112ZM261.408 179.112C261.312 179.059 261.264 179 261.264 178.936C261.264 178.893 261.28 178.851 261.312 178.808L261.968 177.96C262.053 177.853 262.155 177.816 262.272 177.848C262.347 177.869 262.485 177.923 262.688 178.008C262.891 178.093 263.109 178.195 263.344 178.312C263.579 178.429 263.776 178.547 263.936 178.664C264.107 178.771 264.192 178.867 264.192 178.952C264.192 179.005 264.171 179.053 264.128 179.096L263.376 180.024C263.333 180.077 263.285 180.104 263.232 180.104C263.168 180.104 263.115 180.083 263.072 180.04C262.848 179.848 262.587 179.672 262.288 179.512C262 179.352 261.707 179.219 261.408 179.112ZM268.08 181.032C268.069 181.011 268.064 180.979 268.064 180.936C268.064 180.851 268.123 180.792 268.24 180.76C268.88 180.643 269.552 180.451 270.256 180.184C270.971 179.917 271.605 179.619 272.16 179.288C272.213 179.256 272.256 179.24 272.288 179.24C272.373 179.24 272.421 179.304 272.432 179.432L272.56 180.456V180.52C272.56 180.616 272.528 180.68 272.464 180.712C272.155 180.904 271.787 181.101 271.36 181.304C270.944 181.496 270.507 181.683 270.048 181.864C269.6 182.035 269.173 182.184 268.768 182.312C268.757 182.312 268.747 182.317 268.736 182.328C268.725 182.328 268.709 182.328 268.688 182.328C268.581 182.328 268.512 182.275 268.48 182.168L268.08 181.032ZM260.8 181.256C260.789 181.235 260.784 181.203 260.784 181.16C260.784 181.075 260.843 181.016 260.96 180.984C261.621 180.835 262.299 180.616 262.992 180.328C263.685 180.04 264.309 179.715 264.864 179.352C264.917 179.32 264.965 179.304 265.008 179.304C265.083 179.304 265.131 179.363 265.152 179.48L265.264 180.552V180.632C265.264 180.717 265.237 180.781 265.184 180.824C264.885 181.037 264.528 181.256 264.112 181.48C263.707 181.704 263.275 181.917 262.816 182.12C262.357 182.312 261.915 182.477 261.488 182.616C261.467 182.627 261.435 182.632 261.392 182.632C261.296 182.632 261.232 182.579 261.2 182.472L260.8 181.256ZM264.256 184.968V185.96H271.824V184.968H264.256ZM264.256 187.304V188.376H271.824V187.304H264.256Z" fill="#4A1C53"/>
</svg>
