<svg width="345" height="238" viewBox="0 0 345 238" fill="none" xmlns="http://www.w3.org/2000/svg">
<path d="M4.28561 56.4451C6.59299 49.8921 10.9703 44.268 16.7562 40.4225L72.045 3.67569C81.9532 -2.90964 95.3027 -0.414579 102.164 9.30491C105.776 14.4219 111.399 17.7546 117.622 18.4658L190.586 26.8045C193.738 27.1648 196.82 27.9919 199.729 29.2588L222.675 39.2514C225.109 40.3116 227.667 41.0647 230.287 41.4932L300.012 52.8947C303.865 53.5248 307.571 54.855 310.946 56.8194L326.309 65.7621C334.562 70.566 340.238 78.8046 341.787 88.2273L344.417 104.228C345.028 107.946 344.978 111.741 344.269 115.441L331.784 180.599C330.217 188.775 325.526 196.018 318.706 200.792L296.402 216.405C295.03 217.366 293.585 218.217 292.08 218.951L259.982 234.608C255.612 236.74 250.814 237.848 245.952 237.848H207.781C201.933 237.848 196.197 236.245 191.195 233.214L170.059 220.404C167.263 218.71 164.744 216.597 162.588 214.14L144.397 193.402C142.043 190.718 140.154 187.659 138.81 184.353L130.067 162.85C125.358 151.269 114.338 143.491 101.849 142.934L60.1434 141.075C49.9025 140.618 40.5002 135.283 34.856 126.726L29.8681 119.163C28.8519 117.623 27.7043 116.173 26.4382 114.83L8.71793 96.0356C0.50251 87.3223 -2.16015 74.751 1.81725 63.4552L4.28561 56.4451Z" fill="#70FF70"/>
</svg>
