<svg width="364" height="330" viewBox="0 0 364 330" fill="none" xmlns="http://www.w3.org/2000/svg" xmlns:xlink="http://www.w3.org/1999/xlink">
<path d="M0.149264 21.8923C3.47696 49.6361 6.15496 78.009 5.41234 92.8323C5.16059 97.8576 4.95127 102.925 5.93803 107.859L9.43701 125.354L18.8281 156.385C20.2048 160.935 22.8628 164.991 26.4842 168.069C35.0104 175.316 37.6099 187.384 32.8235 197.499L17.5121 229.855C15.4873 234.134 14.437 238.809 14.437 243.543V283.124C14.437 285.932 14.8064 288.727 15.5358 291.438L31.6405 351.299C36.5984 369.727 56.4807 379.747 74.2427 372.769L142.917 345.79C149.418 343.236 156.576 342.879 163.299 344.774L302.892 384.117C321.297 389.305 340.112 377.299 343.163 358.423L351.804 304.956C352.866 298.385 351.853 291.646 348.905 285.678L338.642 264.903C334.981 257.492 334.33 248.953 336.825 241.073L362.319 160.542C363.715 156.136 364.138 151.479 363.562 146.893L359.52 114.738C356.646 91.8831 331.294 79.4587 311.471 91.1907L287.988 105.089C282.731 108.2 276.693 109.742 270.587 109.531L200.608 107.118C195.565 106.944 190.636 105.581 186.221 103.138L156.443 86.6655C149.67 82.9185 144.484 76.8431 141.847 69.5653L128.943 33.9495C124.179 20.8014 111.429 12.2696 97.458 12.8808L50.7835 14.9229C44.6187 15.1926 38.7155 12.4133 34.9955 7.48992C23.2336 -8.07738 -2.17433 2.52005 0.149264 21.8923Z" fill="url(#pattern0_47_199)" fill-opacity="0.74"/>
<defs>
<pattern id="pattern0_47_199" patternUnits="userSpaceOnUse" patternTransform="matrix(98.8428 0 0 183.565 -2.17433 -8.07738)" preserveAspectRatio="none" viewBox="0 0 241.08 447.72" width="1" height="1">
<use xlink:href="#pattern0_47_199_inner" transform="translate(-241.08 0)"/>
<g id="pattern0_47_199_inner">
<g clip-path="url(#clip0_47_199)">
<path d="M179.713 44.8029H146.204C137.21 44.8029 129.918 52.044 129.918 60.9765V111.728C129.918 120.661 137.21 127.902 146.204 127.902H179.713C188.708 127.902 196 120.661 196 111.728V60.9765C196 52.044 188.708 44.8029 179.713 44.8029Z" fill="#70FF70"/>
<path d="M88.3827 0C118.933 0 145.884 15.5731 161.761 39.2257H147.14C134.63 39.2257 124.489 49.2969 124.489 61.7201V110.613L124.491 110.903C124.648 123.193 134.728 133.107 147.14 133.107H164.808C161.058 139.58 156.474 145.603 151.127 151.007V174.53C151.127 178.592 147.806 181.888 143.718 181.888H128.899C124.81 181.888 121.489 178.592 121.489 174.53V151.254H55.5925V174.169C55.5925 178.229 52.273 181.527 48.1838 181.527H33.3655C29.2763 181.527 25.9564 178.229 25.9564 174.169V151.254H25.8868C9.31184 134.639 1.81767e-05 112.102 0 88.6033C0 39.7018 39.603 5.04002e-06 88.3827 0ZM165.213 44.8029C172.565 57.7245 176.766 72.676 176.766 88.6033C176.766 102.224 173.637 115.521 167.779 127.53H147.14C137.732 127.53 130.105 119.956 130.105 110.613V61.7201C130.105 52.377 137.732 44.8029 147.14 44.8029H165.213ZM60.8819 89.7031C59.5593 100.797 67.3401 110.843 78.2463 112.125C89.1519 113.408 99.0798 105.443 100.402 94.3496C96.4475 99.5099 88.1905 103.105 79.4442 102.077C70.698 101.048 63.5139 95.6381 60.8819 89.7031ZM105.552 62.4281C98.9334 62.4281 93.5676 68.3112 93.5676 75.5685C93.5676 82.8258 98.9334 88.7093 105.552 88.7093C112.171 88.7093 117.537 82.8258 117.537 75.5685C117.537 68.3112 112.171 62.4281 105.552 62.4281ZM62.2058 32.6356C48.3777 32.6356 37.1679 43.8804 37.1679 57.7513C37.1679 71.6223 48.3777 82.8669 62.2058 82.8669C76.0338 82.8669 87.2436 71.6223 87.2436 57.7513C87.2436 43.8804 76.0338 32.6356 62.2058 32.6356Z" fill="url(#paint0_linear_47_199)"/>
</g>
</g>
<use xlink:href="#pattern0_47_199_inner" transform="translate(-120.54 223.86)"/>
<use xlink:href="#pattern0_47_199_inner" transform="translate(120.54 223.86)"/>
</pattern><linearGradient id="paint0_linear_47_199" x1="141.574" y1="143.777" x2="61.8959" y2="43.3607" gradientUnits="userSpaceOnUse">
<stop stop-color="#70FF70"/>
<stop offset="0.44" stop-color="#70FF70"/>
<stop offset="1" stop-color="#70FF70"/>
</linearGradient>
<clipPath id="clip0_47_199">
<rect width="196" height="182" fill="white"/>
</clipPath>
</defs>
</svg>
