<svg width="175" height="147" viewBox="0 0 175 147" fill="none" xmlns="http://www.w3.org/2000/svg">
<path d="M108.933 3.64407C115.511 2.23449 122.375 3.1557 128.349 6.25052L145.984 15.3863C153.812 19.4421 159.371 26.8398 161.088 35.4878L170.715 83.9644C171.536 88.0981 171.446 92.3612 170.451 96.4566L165.144 118.312C164.231 122.071 162.575 125.609 160.274 128.718L157.975 131.825C151.165 141.027 139.579 145.362 128.402 142.89L96.6799 135.875L96.5872 135.854L96.4934 135.84L58.6448 129.953C54.3781 129.289 50.3131 127.681 46.7473 125.246L21.4856 107.993C15.7769 104.094 11.6486 98.2844 9.84497 91.6109L3.56665 68.3833C1.03751 59.0255 7.25681 49.561 16.8499 48.1685C23.8389 47.1538 29.9262 42.8692 33.2395 36.6324L33.6506 35.8579C35.6051 32.179 38.7826 29.2974 42.634 27.7095L90.0071 8.17825C91.6163 7.51484 93.2817 6.99707 94.9836 6.63235L108.933 3.64407Z" stroke="#70FF70" stroke-width="6"/>
</svg>
