<svg width="57" height="22" viewBox="0 0 57 22" fill="none" xmlns="http://www.w3.org/2000/svg">
<rect width="50" height="22" rx="11" fill="#4A1C53"/>
<path d="M9.528 15.64C9.496 15.5867 9.48 15.544 9.48 15.512C9.48 15.448 9.51733 15.3893 9.592 15.336C10.0507 15.0267 10.5093 14.664 10.968 14.248C11.4267 13.8213 11.8427 13.3627 12.216 12.872H10.264C10.1147 12.872 10.04 12.7973 10.04 12.648V11.32C10.04 11.1707 10.1147 11.096 10.264 11.096H12.664V10.072H10.072C9.92267 10.072 9.848 9.99733 9.848 9.848V8.552C9.848 8.40267 9.92267 8.328 10.072 8.328H11.176C11.1227 8.04 11.0587 7.752 10.984 7.464C10.92 7.16533 10.8507 6.86667 10.776 6.568H10.296C10.1467 6.568 10.072 6.49333 10.072 6.344V5.048C10.072 4.89867 10.1467 4.824 10.296 4.824H12.616V3.832C12.616 3.68267 12.6907 3.608 12.84 3.608H14.36C14.5093 3.608 14.584 3.68267 14.584 3.832V4.824H16.904C17.0533 4.824 17.128 4.89867 17.128 5.048V6.344C17.128 6.49333 17.0533 6.568 16.904 6.568H16.472C16.3547 7.16533 16.216 7.752 16.056 8.328H17.064C17.2133 8.328 17.288 8.40267 17.288 8.552V9.848C17.288 9.99733 17.2133 10.072 17.064 10.072H14.52V11.096H16.824C16.9733 11.096 17.048 11.1707 17.048 11.32V12.648C17.048 12.7973 16.9733 12.872 16.824 12.872H14.984C15.272 13.2347 15.5867 13.5653 15.928 13.864C16.2693 14.152 16.616 14.408 16.968 14.632C17.0427 14.6747 17.08 14.7333 17.08 14.808C17.08 14.8507 17.064 14.8987 17.032 14.952L16.152 16.152C16.0987 16.2267 16.0453 16.264 15.992 16.264C15.9493 16.264 15.9013 16.2373 15.848 16.184C15.368 15.7467 14.92 15.224 14.504 14.616L14.552 17.976C14.552 18.1253 14.4773 18.2 14.328 18.2H12.856C12.7067 18.2 12.632 18.1253 12.632 17.976L12.664 14.84C12.3867 15.2773 12.072 15.6933 11.72 16.088C11.3787 16.472 11.0213 16.824 10.648 17.144C10.6053 17.1867 10.5573 17.208 10.504 17.208C10.44 17.208 10.3867 17.1707 10.344 17.096L9.528 15.64ZM18.344 17.88C18.2693 17.9867 18.168 18.024 18.04 17.992L16.456 17.48C16.3493 17.448 16.296 17.3947 16.296 17.32C16.296 17.2773 16.312 17.2347 16.344 17.192C16.8027 16.5413 17.1387 15.816 17.352 15.016C17.5653 14.2053 17.704 13.3253 17.768 12.376C17.832 11.4267 17.864 10.4027 17.864 9.304V8.728L17.832 4.712C17.832 4.56267 17.9067 4.488 18.056 4.488C18.568 4.47733 19.128 4.44533 19.736 4.392C20.3547 4.328 20.9787 4.24267 21.608 4.136C22.2373 4.02933 22.8133 3.896 23.336 3.736L23.416 3.72C23.512 3.72 23.576 3.77333 23.608 3.88L24.072 5.512C24.072 5.608 24.0133 5.672 23.896 5.704C23.448 5.832 22.9733 5.93333 22.472 6.008C21.9813 6.08267 21.5013 6.136 21.032 6.168C20.5627 6.18933 20.1413 6.20533 19.768 6.216L19.784 8.36H24.104C24.2533 8.36 24.328 8.43467 24.328 8.584V10.12C24.328 10.2693 24.2533 10.344 24.104 10.344H23.096V17.976C23.096 18.1253 23.0213 18.2 22.872 18.2H21.304C21.1547 18.2 21.08 18.1253 21.08 17.976V10.344H19.784C19.7733 11.208 19.7307 12.0933 19.656 13C19.5813 13.896 19.4427 14.76 19.24 15.592C19.0373 16.424 18.7387 17.1867 18.344 17.88ZM12.92 8.328H14.28C14.3653 8.04 14.44 7.74667 14.504 7.448C14.5787 7.14933 14.6373 6.856 14.68 6.568H12.552L12.92 8.328ZM27.128 18.024C27.0853 18.0773 27.0373 18.104 26.984 18.104C26.92 18.104 26.8667 18.0773 26.824 18.024L25.672 16.792C25.6293 16.7387 25.608 16.6853 25.608 16.632C25.608 16.568 25.6293 16.5147 25.672 16.472C26.7387 15.3733 27.432 13.7947 27.752 11.736H26.024C25.8747 11.736 25.8 11.6613 25.8 11.512V10.04C25.8 9.89067 25.8747 9.816 26.024 9.816H27.928L27.944 8.872V7.848H26.344C26.1947 7.848 26.12 7.77333 26.12 7.624V6.168C26.12 6.01867 26.1947 5.944 26.344 5.944H27.944V3.832C27.944 3.68267 28.0187 3.608 28.168 3.608H29.752C29.9013 3.608 29.976 3.68267 29.976 3.832V5.944H31.4C31.5493 5.944 31.624 6.01867 31.624 6.168V7.624C31.624 7.77333 31.5493 7.848 31.4 7.848H29.976V8.872L29.944 9.816H31.56C31.7093 9.816 31.784 9.89067 31.784 10.04V11.512C31.784 11.6613 31.7093 11.736 31.56 11.736H30.136C30.3813 12.3013 30.6693 12.8187 31 13.288C31.3413 13.7467 31.6933 14.136 32.056 14.456C32.1093 14.5093 32.136 14.5627 32.136 14.616C32.136 14.68 32.1147 14.7333 32.072 14.776L31.016 15.96C30.9627 16.0133 30.9093 16.04 30.856 16.04C30.8027 16.04 30.7493 16.0133 30.696 15.96C30.4293 15.64 30.1627 15.288 29.896 14.904C29.64 14.5093 29.4053 14.0827 29.192 13.624C28.9893 14.4667 28.712 15.272 28.36 16.04C28.0187 16.808 27.608 17.4693 27.128 18.024ZM30.392 17.032C30.3493 16.9893 30.328 16.9413 30.328 16.888C30.328 16.8133 30.376 16.76 30.472 16.728C31.4 16.4187 32.072 15.9547 32.488 15.336C32.9147 14.7067 33.1493 13.96 33.192 13.096H32.44C32.2907 13.096 32.216 13.0213 32.216 12.872V4.264C32.216 4.11467 32.2907 4.04 32.44 4.04H39.304C39.4533 4.04 39.528 4.11467 39.528 4.264V12.872C39.528 13.0213 39.4533 13.096 39.304 13.096H37.64V15.8C37.64 15.9387 37.6667 16.0453 37.72 16.12C37.784 16.1947 37.8907 16.2427 38.04 16.264C38.0933 16.264 38.152 16.2693 38.216 16.28C38.28 16.28 38.344 16.2747 38.408 16.264C38.6533 16.232 38.8027 16.0507 38.856 15.72C38.92 15.3787 38.9573 14.9467 38.968 14.424C38.968 14.232 39.0533 14.1733 39.224 14.248L40.2 14.68C40.3173 14.7333 40.376 14.824 40.376 14.952C40.3653 15.368 40.3387 15.7627 40.296 16.136C40.264 16.5093 40.1787 16.8347 40.04 17.112C39.9013 17.4 39.6667 17.624 39.336 17.784C39.016 17.944 38.5573 18.024 37.96 18.024C37.6293 18.024 37.2933 17.9973 36.952 17.944C36.6107 17.9013 36.3227 17.784 36.088 17.592C35.864 17.4 35.752 17.0853 35.752 16.648V13.096H35.016C34.952 14.2907 34.6693 15.3253 34.168 16.2C33.6773 17.064 32.8667 17.7307 31.736 18.2C31.6933 18.2213 31.656 18.232 31.624 18.232C31.56 18.232 31.496 18.2 31.432 18.136L30.392 17.032ZM37.592 5.672H34.168V6.744H37.592V5.672ZM37.592 8.136H34.168V9.064H37.592V8.136ZM37.592 10.44H34.168V11.576H37.592V10.44Z" fill="#70FF70"/>
</svg>
