<svg width="317" height="8" viewBox="0 0 317 8" fill="none" xmlns="http://www.w3.org/2000/svg">
<path d="M2.5 1.38939C1.11929 1.38939 0 2.50868 0 3.88939C0 5.2701 1.11929 6.38939 2.5 6.38939V3.88939V1.38939ZM2.6 3.88939L3.30464 1.49075L2.95961 1.38939H2.6V3.88939ZM4.425 4.42551L3.72036 6.82415L4.425 4.42551ZM12.8125 4.82199L12.4017 7.28801H12.4017L12.8125 4.82199ZM22.1875 4.56841L22.5608 2.09644L22.1875 4.56841ZM24.0625 4.85156L23.6892 7.32353L24.0625 4.85156ZM44.6875 4.6864L45.5883 7.01849L44.6875 4.6864ZM45.625 4.32429L46.5258 6.65637L45.625 4.32429ZM46.5625 3.96218L47.4633 6.29426L46.5625 3.96218ZM74.6875 4.27459L74.8672 6.76812L74.6875 4.27459ZM76.5625 4.13947L76.7422 6.63301L76.5625 4.13947ZM84.0625 4.80077L82.783 6.94856L84.0625 4.80077ZM90.625 3.35484L89.978 0.940012L90.625 3.35484ZM100.938 3.7709L101.776 1.41583L100.938 3.7709ZM101.875 4.10482L101.036 6.45989L101.875 4.10482ZM106.562 5.18916L106.196 7.66219L106.562 5.18916ZM114.062 2.81006L113.881 5.30349L114.062 2.81006ZM123.438 3.32477L122.826 5.74891L123.438 3.32477ZM135.625 3.45113L136.394 5.83007L135.625 3.45113ZM136.562 3.14827L135.794 0.769327L136.562 3.14827ZM140.312 2.61354L140.107 0.121996L140.312 2.61354ZM144.062 2.84799L143.787 5.33277L144.062 2.84799ZM155.312 2.94477L155.306 0.444781L155.312 2.94477ZM157.188 3.09181L156.794 5.5606L157.188 3.09181ZM175.938 4.68563L176.364 2.22233L175.938 4.68563ZM181.562 5.15508L181.547 2.65513L181.562 5.15508ZM183.438 4.90219L182.801 2.48465L183.438 4.90219ZM198.438 4.32891L198.643 1.83738L198.438 4.32891ZM200.312 4.4836L200.107 6.97514L200.312 4.4836ZM204.062 4.09259L203.652 1.62655L204.062 4.09259ZM213.438 5.16635L213.044 2.69757L213.438 5.16635ZM217.188 4.52191L216.677 2.07465L217.188 4.52191ZM222.812 3.239L222.212 0.81218L222.812 3.239ZM256.562 5.12912L256.432 2.63254L256.562 5.12912ZM274.375 4.329L273.296 2.07383L274.375 4.329ZM277.188 3.67897L276.55 6.09643L277.188 3.67897ZM294.062 3.25687L294.583 0.811732L294.062 3.25687ZM314.125 3.32902L316.369 2.22762L316.296 2.07755L316.203 1.93862L314.125 3.32902ZM314.4 3.88939L312.156 4.99079L312.842 6.38939H314.4V3.88939ZM314.5 6.38939C315.881 6.38939 317 5.2701 317 3.88939C317 2.50868 315.881 1.38939 314.5 1.38939V3.88939V6.38939ZM2.5 3.88939V6.38939H2.6V3.88939V1.38939H2.5V3.88939ZM2.6 3.88939L1.89536 6.28803L3.72036 6.82415L4.425 4.42551L5.12964 2.02687L3.30464 1.49075L2.6 3.88939ZM4.425 4.42551L3.72036 6.82415C5.00624 7.2019 6.38133 7.473 7.5877 7.27736L7.1875 4.8096L6.7873 2.34184C6.80717 2.33862 6.69003 2.35758 6.37241 2.31342C6.06863 2.27118 5.65923 2.18245 5.12964 2.02687L4.425 4.42551ZM7.1875 4.8096L7.5877 7.27736L8.5252 7.12533L8.125 4.65757L7.7248 2.18981L6.7873 2.34184L7.1875 4.8096ZM8.125 4.65757L8.5252 7.12533L9.4627 6.9733L9.0625 4.50553L8.6623 2.03777L7.7248 2.18981L8.125 4.65757ZM9.0625 4.50553L9.4627 6.9733C9.81889 6.91553 10.17 6.91626 10.5267 6.97569L10.9375 4.50966L11.3483 2.04364C10.455 1.89485 9.55612 1.89283 8.6623 2.03777L9.0625 4.50553ZM10.9375 4.50966L10.5267 6.97569L11.4642 7.13185L11.875 4.66583L12.2858 2.19981L11.3483 2.04364L10.9375 4.50966ZM11.875 4.66583L11.4642 7.13185L12.4017 7.28801L12.8125 4.82199L13.2233 2.35597L12.2858 2.19981L11.875 4.66583ZM12.8125 4.82199L12.4017 7.28801C13.4931 7.4698 14.5698 7.34146 15.587 6.94923L14.6875 4.61665L13.788 2.28406C13.5552 2.37385 13.3819 2.3824 13.2233 2.35597L12.8125 4.82199ZM14.6875 4.61665L15.587 6.94923L16.5245 6.58772L15.625 4.25514L14.7255 1.92255L13.788 2.28406L14.6875 4.61665ZM15.625 4.25514L16.5245 6.58772L17.462 6.22621L16.5625 3.89363L15.663 1.56104L14.7255 1.92255L15.625 4.25514ZM16.5625 3.89363L17.462 6.22621C17.6364 6.15895 17.7459 6.16096 17.8573 6.18754L18.4375 3.7558L19.0177 1.32405C17.8791 1.05239 16.7386 1.14629 15.663 1.56104L16.5625 3.89363ZM18.4375 3.7558L17.8573 6.18754L18.7948 6.41122L19.375 3.97947L19.9552 1.54773L19.0177 1.32405L18.4375 3.7558ZM19.375 3.97947L18.7948 6.41122L19.7323 6.6349L20.3125 4.20315L20.8927 1.77141L19.9552 1.54773L19.375 3.97947ZM20.3125 4.20315L19.7323 6.6349C20.4245 6.80006 21.1186 6.93533 21.8142 7.04038L22.1875 4.56841L22.5608 2.09644C22.0064 2.01272 21.4505 1.90449 20.8927 1.77141L20.3125 4.20315ZM22.1875 4.56841L21.8142 7.04038L22.7517 7.18196L23.125 4.70998L23.4983 2.23801L22.5608 2.09644L22.1875 4.56841ZM23.125 4.70998L22.7517 7.18196L23.6892 7.32353L24.0625 4.85156L24.4358 2.37959L23.4983 2.23801L23.125 4.70998ZM24.0625 4.85156L23.6892 7.32353C24.5097 7.44743 25.3344 7.47324 26.1593 7.39978L25.9375 4.90964L25.7157 2.41949C25.2906 2.45736 24.8653 2.44445 24.4358 2.37959L24.0625 4.85156ZM25.9375 4.90964L26.1593 7.39978L27.0968 7.31628L26.875 4.82614L26.6532 2.336L25.7157 2.41949L25.9375 4.90964ZM26.875 4.82614L27.0968 7.31628L28.0343 7.23278L27.8125 4.74264L27.5907 2.2525L26.6532 2.336L26.875 4.82614ZM27.8125 4.74264L28.0343 7.23278C28.8453 7.16055 29.6464 6.99815 30.4348 6.75116L29.6875 4.36547L28.9402 1.97978C28.4786 2.12436 28.0297 2.2134 27.5907 2.2525L27.8125 4.74264ZM29.6875 4.36547L30.4348 6.75116L31.3723 6.45749L30.625 4.0718L29.8777 1.68611L28.9402 1.97978L29.6875 4.36547ZM30.625 4.0718L31.3723 6.45749L32.3098 6.16381L31.5625 3.77812L30.8152 1.39243L29.8777 1.68611L30.625 4.0718ZM31.5625 3.77812L32.3098 6.16381C32.574 6.08105 32.8031 6.06891 33.0283 6.10628L33.4375 3.63999L33.8467 1.1737C32.8219 1.00368 31.801 1.08363 30.8152 1.39243L31.5625 3.77812ZM33.4375 3.63999L33.0283 6.10628L33.9658 6.26182L34.375 3.79553L34.7842 1.32924L33.8467 1.1737L33.4375 3.63999ZM34.375 3.79553L33.9658 6.26182L34.9033 6.41736L35.3125 3.95107L35.7217 1.48478L34.7842 1.32924L34.375 3.79553ZM35.3125 3.95107L34.9033 6.41736C35.8768 6.57886 36.8519 6.53314 37.8066 6.28914L37.1875 3.867L36.5684 1.44486C36.2731 1.52034 35.9982 1.53066 35.7217 1.48478L35.3125 3.95107ZM37.1875 3.867L37.8066 6.28914L38.7441 6.04953L38.125 3.62739L37.5059 1.20525L36.5684 1.44486L37.1875 3.867ZM38.125 3.62739L38.7441 6.04953L39.6816 5.80992L39.0625 3.38778L38.4434 0.96564L37.5059 1.20525L38.125 3.62739ZM39.0625 3.38778L39.6816 5.80992C39.6926 5.80711 39.6959 5.80722 39.6934 5.80738C39.6908 5.80755 39.6884 5.80735 39.6885 5.80736C39.6888 5.8074 39.6972 5.80841 39.7151 5.81408C39.7334 5.81986 39.764 5.83127 39.8074 5.85326L40.9375 3.62326L42.0676 1.39325C40.9524 0.828137 39.708 0.642448 38.4434 0.96564L39.0625 3.38778ZM40.9375 3.62326L39.8074 5.85326L40.7449 6.32835L41.875 4.09835L43.0051 1.86834L42.0676 1.39325L40.9375 3.62326ZM41.875 4.09835L40.7449 6.32835L41.6824 6.80344L42.8125 4.57343L43.9426 2.34343L43.0051 1.86834L41.875 4.09835ZM42.8125 4.57343L41.6824 6.80344C42.9066 7.42378 44.2689 7.52809 45.5883 7.01849L44.6875 4.6864L43.7867 2.35432C43.7823 2.35605 43.7928 2.35157 43.8166 2.3477C43.8408 2.34375 43.8699 2.34191 43.9004 2.34374C43.9306 2.34557 43.9525 2.35042 43.9631 2.35344C43.9731 2.35627 43.9665 2.35557 43.9426 2.34343L42.8125 4.57343ZM44.6875 4.6864L45.5883 7.01849L46.5258 6.65637L45.625 4.32429L44.7242 1.99221L43.7867 2.35432L44.6875 4.6864ZM45.625 4.32429L46.5258 6.65637L47.4633 6.29426L46.5625 3.96218L45.6617 1.6301L44.7242 1.99221L45.625 4.32429ZM46.5625 3.96218L47.4633 6.29426C47.9175 6.1188 48.3533 6.00727 48.7733 5.95034L48.4375 3.473L48.1017 0.995647C47.2717 1.10814 46.4575 1.32274 45.6617 1.6301L46.5625 3.96218ZM48.4375 3.473L48.7733 5.95034L49.7108 5.82327L49.375 3.34593L49.0392 0.868579L48.1017 0.995647L48.4375 3.473ZM49.375 3.34593L49.7108 5.82327L50.6483 5.69621L50.3125 3.21886L49.9767 0.741511L49.0392 0.868579L49.375 3.34593ZM50.3125 3.21886L50.6483 5.69621C50.7899 5.67701 50.9597 5.68737 51.2025 5.79145L52.1875 3.49369L53.1725 1.19594C52.1653 0.764144 51.0851 0.59128 49.9767 0.741511L50.3125 3.21886ZM52.1875 3.49369L51.2025 5.79145L52.14 6.19336L53.125 3.8956L54.11 1.59784L53.1725 1.19594L52.1875 3.49369ZM53.125 3.8956L52.14 6.19336L53.0775 6.59526L54.0625 4.2975L55.0475 1.99974L54.11 1.59784L53.125 3.8956ZM54.0625 4.2975L53.0775 6.59526C54.24 7.09365 55.4912 7.1691 56.7149 6.76873L55.9375 4.39267L55.1601 2.01661C55.1397 2.02331 55.1289 2.02495 55.1265 2.02529C55.1243 2.02559 55.1251 2.02537 55.1267 2.02546C55.1283 2.02554 55.1247 2.02559 55.1141 2.02304C55.1031 2.02042 55.0812 2.01417 55.0475 1.99974L54.0625 4.2975ZM55.9375 4.39267L56.7149 6.76873L57.6524 6.46201L56.875 4.08595L56.0976 1.70989L55.1601 2.01661L55.9375 4.39267ZM56.875 4.08595L57.6524 6.46201L58.5899 6.15528L57.8125 3.77922L57.0351 1.40316L56.0976 1.70989L56.875 4.08595ZM57.8125 3.77922L58.5899 6.15528C58.8184 6.08052 59.0059 6.07409 59.1943 6.11201L59.6875 3.66114L60.1807 1.21026C59.1191 0.996651 58.0566 1.06894 57.0351 1.40316L57.8125 3.77922ZM59.6875 3.66114L59.1943 6.11201L60.1318 6.30066L60.625 3.84978L61.1182 1.39891L60.1807 1.21026L59.6875 3.66114ZM60.625 3.84978L60.1318 6.30066L61.0693 6.4893L61.5625 4.03843L62.0557 1.58756L61.1182 1.39891L60.625 3.84978ZM61.5625 4.03843L61.0693 6.4893C62.1719 6.71116 63.2691 6.60836 64.3091 6.22151L63.4375 3.87836L62.5659 1.5352C62.3559 1.61331 62.2031 1.61722 62.0557 1.58756L61.5625 4.03843ZM63.4375 3.87836L64.3091 6.22151L65.2466 5.87279L64.375 3.52964L63.5034 1.18649L62.5659 1.5352L63.4375 3.87836ZM64.375 3.52964L65.2466 5.87279L66.1841 5.52407L65.3125 3.18092L64.4409 0.837765L63.5034 1.18649L64.375 3.52964ZM65.3125 3.18092L66.1841 5.52407C66.1965 5.51944 66.196 5.52084 66.1842 5.52277C66.172 5.52476 66.1553 5.52607 66.1368 5.52524C66.1185 5.5244 66.1065 5.52182 66.1034 5.52102C66.1007 5.52035 66.1119 5.52287 66.1378 5.53487L67.1875 3.26589L68.2372 0.996923C67.0294 0.438188 65.7131 0.364553 64.4409 0.837765L65.3125 3.18092ZM67.1875 3.26589L66.1378 5.53487L67.0753 5.96856L68.125 3.69959L69.1747 1.43062L68.2372 0.996923L67.1875 3.26589ZM68.125 3.69959L67.0753 5.96856L68.0128 6.40226L69.0625 4.13329L70.1122 1.86432L69.1747 1.43062L68.125 3.69959ZM69.0625 4.13329L68.0128 6.40226C68.9745 6.84715 70.0097 7.0709 71.0871 7.0063L70.9375 4.51078L70.7879 2.01526C70.6153 2.02561 70.4005 1.9977 70.1122 1.86432L69.0625 4.13329ZM70.9375 4.51078L71.0871 7.0063L72.0246 6.95009L71.875 4.45457L71.7254 1.95905L70.7879 2.01526L70.9375 4.51078ZM71.875 4.45457L72.0246 6.95009L72.9621 6.89388L72.8125 4.39836L72.6629 1.90284L71.7254 1.95905L71.875 4.45457ZM72.8125 4.39836L72.9621 6.89388C73.5972 6.8558 74.2322 6.81388 74.8672 6.76812L74.6875 4.27459L74.5078 1.78106C73.8928 1.82537 73.2778 1.86597 72.6629 1.90284L72.8125 4.39836ZM74.6875 4.27459L74.8672 6.76812L75.8047 6.70057L75.625 4.20703L75.4453 1.7135L74.5078 1.78106L74.6875 4.27459ZM75.625 4.20703L75.8047 6.70057L76.7422 6.63301L76.5625 4.13947L76.3828 1.64594L75.4453 1.7135L75.625 4.20703ZM76.5625 4.13947L76.7422 6.63301C77.5171 6.57716 78.2867 6.45176 79.0494 6.25924L78.4375 3.83527L77.8256 1.4113C77.3383 1.53431 76.8579 1.6117 76.3828 1.64594L76.5625 4.13947ZM78.4375 3.83527L79.0494 6.25924L79.9869 6.0226L79.375 3.59863L78.7631 1.17466L77.8256 1.4113L78.4375 3.83527ZM79.375 3.59863L79.9869 6.0226L80.9244 5.78596L80.3125 3.36199L79.7006 0.938016L78.7631 1.17466L79.375 3.59863ZM80.3125 3.36199L80.9244 5.78596C80.9184 5.78746 80.9035 5.79046 80.8821 5.79132C80.8607 5.79219 80.8414 5.79054 80.8271 5.78809C80.8132 5.78571 80.8114 5.78385 80.8232 5.78837C80.8355 5.7931 80.8638 5.80524 80.908 5.83161L82.1875 3.68382L83.467 1.53603C82.3528 0.872291 81.0525 0.596777 79.7006 0.938016L80.3125 3.36199ZM82.1875 3.68382L80.908 5.83161L81.8455 6.39008L83.125 4.2423L84.4045 2.09451L83.467 1.53603L82.1875 3.68382ZM83.125 4.2423L81.8455 6.39008L82.783 6.94856L84.0625 4.80077L85.342 2.65299L84.4045 2.09451L83.125 4.2423ZM84.0625 4.80077L82.783 6.94856C84.0149 7.68241 85.4542 7.8704 86.8671 7.30449L85.9375 4.98374L85.0079 2.66298C85.0187 2.65865 85.0484 2.64827 85.0943 2.64132C85.141 2.63425 85.192 2.63262 85.2428 2.63757C85.3505 2.64808 85.3881 2.68049 85.342 2.65299L84.0625 4.80077ZM85.9375 4.98374L86.8671 7.30449L87.8046 6.92898L86.875 4.60823L85.9454 2.28747L85.0079 2.66298L85.9375 4.98374ZM86.875 4.60823L87.8046 6.92898L88.7421 6.55347L87.8125 4.23272L86.8829 1.91196L85.9454 2.28747L86.875 4.60823ZM87.8125 4.23272L88.7421 6.55347C89.2785 6.33859 89.8093 6.16158 90.3345 6.02085L89.6875 3.60602L89.0405 1.1912C88.3157 1.38538 87.5965 1.62616 86.8829 1.91196L87.8125 4.23272ZM89.6875 3.60602L90.3345 6.02085L91.272 5.76966L90.625 3.35484L89.978 0.940012L89.0405 1.1912L89.6875 3.60602ZM90.625 3.35484L91.272 5.76966L92.2095 5.51848L91.5625 3.10365L90.9155 0.688828L89.978 0.940012L90.625 3.35484ZM91.5625 3.10365L92.2095 5.51848C92.5981 5.41436 92.9698 5.37433 93.3329 5.38953L93.4375 2.89172L93.5421 0.393905C92.6552 0.356777 91.7769 0.45804 90.9155 0.688828L91.5625 3.10365ZM93.4375 2.89172L93.3329 5.38953L94.2704 5.42878L94.375 2.93096L94.4796 0.433151L93.5421 0.393905L93.4375 2.89172ZM94.375 2.93096L94.2704 5.42878L95.2079 5.46802L95.3125 2.97021L95.4171 0.472397L94.4796 0.433151L94.375 2.93096ZM95.3125 2.97021L95.2079 5.46802C95.7729 5.49167 96.3383 5.53572 96.9043 5.60025L97.1875 3.11634L97.4707 0.63243C96.7867 0.554445 96.1021 0.501074 95.4171 0.472397L95.3125 2.97021ZM97.1875 3.11634L96.9043 5.60025L97.8418 5.70713L98.125 3.22322L98.4082 0.739313L97.4707 0.63243L97.1875 3.11634ZM98.125 3.22322L97.8418 5.70713L98.7793 5.81401L99.0625 3.33011L99.3457 0.846196L98.4082 0.739313L98.125 3.22322ZM99.0625 3.33011L98.7793 5.81401C99.2047 5.86252 99.6436 5.96388 100.099 6.12598L100.938 3.7709L101.776 1.41583C100.981 1.1327 100.17 0.940205 99.3457 0.846196L99.0625 3.33011ZM100.938 3.7709L100.099 6.12598L101.036 6.45989L101.875 4.10482L102.714 1.74974L101.776 1.41583L100.938 3.7709ZM101.875 4.10482L101.036 6.45989L101.974 6.79381L102.812 4.43873L103.651 2.08366L102.714 1.74974L101.875 4.10482ZM102.812 4.43873L101.974 6.79381C102.744 7.06831 103.527 7.26696 104.321 7.38451L104.688 4.91149L105.054 2.43846C104.598 2.3709 104.131 2.25438 103.651 2.08366L102.812 4.43873ZM104.688 4.91149L104.321 7.38451L105.259 7.52335L105.625 5.05032L105.991 2.57729L105.054 2.43846L104.688 4.91149ZM105.625 5.05032L105.259 7.52335L106.196 7.66219L106.562 5.18916L106.929 2.71613L105.991 2.57729L105.625 5.05032ZM106.562 5.18916L106.196 7.66219C107.606 7.871 108.877 7.41783 109.906 6.67051L108.438 4.64741L106.969 2.62431C106.848 2.71209 106.794 2.72495 106.806 2.72138C106.812 2.71955 106.83 2.71536 106.856 2.71354C106.882 2.7117 106.907 2.71294 106.929 2.71613L106.562 5.18916ZM108.438 4.64741L109.906 6.67051L110.844 5.98992L109.375 3.96682L107.906 1.94372L106.969 2.62431L108.438 4.64741ZM109.375 3.96682L110.844 5.98992L111.781 5.30933L110.312 3.28623L108.844 1.26313L107.906 1.94372L109.375 3.96682ZM110.312 3.28623L111.781 5.30933C111.919 5.20958 112 5.17768 112.026 5.16926C112.046 5.16293 112.033 5.16917 112.006 5.16721L112.188 2.67378L112.369 0.180362C111.028 0.0829122 109.831 0.546296 108.844 1.26313L110.312 3.28623ZM112.188 2.67378L112.006 5.16721L112.944 5.23535L113.125 2.74192L113.306 0.248502L112.369 0.180362L112.188 2.67378ZM113.125 2.74192L112.944 5.23535L113.881 5.30349L114.062 2.81006L114.244 0.316641L113.306 0.248502L113.125 2.74192ZM114.062 2.81006L113.881 5.30349C114.043 5.31521 114.285 5.37386 114.627 5.58427L115.938 3.4554L117.248 1.32653C116.34 0.767345 115.332 0.395765 114.244 0.316641L114.062 2.81006ZM115.938 3.4554L114.627 5.58427L115.564 6.16146L116.875 4.0326L118.186 1.90373L117.248 1.32653L115.938 3.4554ZM116.875 4.0326L115.564 6.16146L116.502 6.73866L117.812 4.60979L119.123 2.48092L118.186 1.90373L116.875 4.0326ZM117.812 4.60979L116.502 6.73866C117.123 7.12091 117.858 7.3875 118.68 7.41055C119.506 7.4337 120.26 7.20656 120.908 6.84396L119.688 4.66234L118.467 2.48073C118.49 2.46789 118.619 2.40688 118.82 2.41251C119.017 2.41804 119.127 2.48347 119.123 2.48092L117.812 4.60979ZM119.688 4.66234L120.908 6.84396L121.846 6.31931L120.625 4.13769L119.404 1.95608L118.467 2.48073L119.688 4.66234ZM120.625 4.13769L121.846 6.31931L122.783 5.79466L121.562 3.61305L120.342 1.43143L119.404 1.95608L120.625 4.13769ZM121.562 3.61305L122.783 5.79466C122.827 5.77013 122.856 5.75824 122.871 5.75298C122.885 5.74789 122.888 5.7484 122.88 5.74962C122.872 5.75089 122.859 5.7518 122.846 5.75113C122.832 5.75047 122.825 5.74864 122.826 5.74891L123.438 3.32477L124.049 0.90064C122.734 0.569038 121.457 0.80744 120.342 1.43143L121.562 3.61305ZM123.438 3.32477L122.826 5.74891L123.764 5.98528L124.375 3.56115L124.986 1.13702L124.049 0.90064L123.438 3.32477ZM124.375 3.56115L123.764 5.98528L124.701 6.22166L125.312 3.79753L125.924 1.37339L124.986 1.13702L124.375 3.56115ZM125.312 3.79753L124.701 6.22166C125.512 6.42603 126.333 6.53488 127.162 6.54334L127.188 4.04347L127.213 1.5436C126.792 1.5393 126.363 1.48419 125.924 1.37339L125.312 3.79753ZM127.188 4.04347L127.162 6.54334L128.099 6.5529L128.125 4.05303L128.151 1.55316L127.213 1.5436L127.188 4.04347ZM128.125 4.05303L128.099 6.5529L129.037 6.56247L129.062 4.0626L129.088 1.56273L128.151 1.55316L128.125 4.05303ZM129.062 4.0626L129.037 6.56247C129.674 6.56897 130.311 6.57092 130.948 6.56832L130.938 4.06834L130.927 1.56836C130.314 1.57086 129.701 1.56899 129.088 1.56273L129.062 4.0626ZM130.938 4.06834L130.948 6.56832L131.885 6.5645L131.875 4.06452L131.865 1.56454L130.927 1.56836L130.938 4.06834ZM131.875 4.06452L131.885 6.5645L132.823 6.56068L132.812 4.0607L132.802 1.56072L131.865 1.56454L131.875 4.06452ZM132.812 4.0607L132.823 6.56068C133.718 6.55702 134.599 6.40997 135.456 6.13294L134.688 3.754L133.919 1.37507C133.526 1.50186 133.157 1.55927 132.802 1.56072L132.812 4.0607ZM134.688 3.754L135.456 6.13294L136.394 5.83007L135.625 3.45113L134.856 1.0722L133.919 1.37507L134.688 3.754ZM135.625 3.45113L136.394 5.83007L137.331 5.5272L136.562 3.14827L135.794 0.769327L134.856 1.0722L135.625 3.45113ZM136.562 3.14827L137.331 5.5272C137.782 5.38155 138.218 5.29468 138.643 5.25966L138.438 2.76811L138.232 0.276564C137.407 0.344595 136.593 0.51116 135.794 0.769327L136.562 3.14827ZM138.438 2.76811L138.643 5.25966L139.58 5.18238L139.375 2.69083L139.17 0.19928L138.232 0.276564L138.438 2.76811ZM139.375 2.69083L139.58 5.18238L140.518 5.10509L140.312 2.61354L140.107 0.121996L139.17 0.19928L139.375 2.69083ZM140.312 2.61354L140.518 5.10509C140.982 5.0668 141.446 5.07333 141.912 5.12495L142.188 2.64017L142.463 0.155384C141.679 0.0684624 140.893 0.0572379 140.107 0.121996L140.312 2.61354ZM142.188 2.64017L141.912 5.12495L142.85 5.22886L143.125 2.74408L143.4 0.259293L142.463 0.155384L142.188 2.64017ZM143.125 2.74408L142.85 5.22886L143.787 5.33277L144.062 2.84799L144.338 0.363201L143.4 0.259293L143.125 2.74408ZM144.062 2.84799L143.787 5.33277C144.271 5.38636 144.76 5.48218 145.257 5.62274L145.938 3.21722L146.618 0.811706C145.865 0.598494 145.104 0.448159 144.338 0.363201L144.062 2.84799ZM145.938 3.21722L145.257 5.62274L146.194 5.88807L146.875 3.48255L147.556 1.07703L146.618 0.811706L145.938 3.21722ZM146.875 3.48255L146.194 5.88807L147.132 6.1534L147.812 3.74788L148.493 1.34236L147.556 1.07703L146.875 3.48255ZM147.812 3.74788L147.132 6.1534C148.202 6.45623 149.298 6.45629 150.368 6.15355L149.688 3.74797L149.007 1.34239C148.827 1.3933 148.673 1.3933 148.493 1.34236L147.812 3.74788ZM149.688 3.74797L150.368 6.15355L151.306 5.88832L150.625 3.48274L149.944 1.07716L149.007 1.34239L149.688 3.74797ZM150.625 3.48274L151.306 5.88832L152.243 5.62308L151.562 3.2175L150.882 0.811925L149.944 1.07716L150.625 3.48274ZM151.562 3.2175L152.243 5.62308C152.657 5.50585 153.056 5.4508 153.444 5.44976L153.438 2.94977L153.431 0.449779C152.569 0.452076 151.718 0.575507 150.882 0.811925L151.562 3.2175ZM153.438 2.94977L153.444 5.44976L154.382 5.44726L154.375 2.94727L154.368 0.44728L153.431 0.449779L153.438 2.94977ZM154.375 2.94727L154.382 5.44726L155.319 5.44476L155.312 2.94477L155.306 0.444781L154.368 0.44728L154.375 2.94727ZM155.312 2.94477L155.319 5.44476C155.808 5.44346 156.299 5.48177 156.794 5.5606L157.188 3.09181L157.581 0.623023C156.826 0.502473 156.067 0.442753 155.306 0.444781L155.312 2.94477ZM157.188 3.09181L156.794 5.5606L157.731 5.71014L158.125 3.24135L158.519 0.772562L157.581 0.623023L157.188 3.09181ZM158.125 3.24135L157.731 5.71014L158.669 5.85968L159.062 3.39089L159.456 0.922102L158.519 0.772562L158.125 3.24135ZM159.062 3.39089L158.669 5.85968C159.292 5.95917 159.916 6.05916 160.54 6.15964L160.938 3.69146L161.335 1.22328C160.709 1.12239 160.083 1.022 159.456 0.922102L159.062 3.39089ZM160.938 3.69146L160.54 6.15964L161.477 6.31067L161.875 3.84249L162.273 1.37431L161.335 1.22328L160.938 3.69146ZM161.875 3.84249L161.477 6.31067L162.415 6.4617L162.812 3.99352L163.21 1.52534L162.273 1.37431L161.875 3.84249ZM162.812 3.99352L162.415 6.4617C163.297 6.60387 164.185 6.607 165.068 6.4708L164.688 4L164.307 1.5292C163.94 1.58573 163.578 1.58454 163.21 1.52534L162.812 3.99352ZM164.688 4L165.068 6.4708L166.006 6.32625L165.625 3.85545L165.244 1.38465L164.307 1.5292L164.688 4ZM165.625 3.85545L166.006 6.32625L166.943 6.1817L166.562 3.7109L166.182 1.2401L165.244 1.38465L165.625 3.85545ZM166.562 3.7109L166.943 6.1817C167.647 6.07317 168.349 5.93049 169.049 5.75414L168.438 3.32999L167.826 0.905849C167.276 1.04464 166.728 1.1559 166.182 1.2401L166.562 3.7109ZM168.438 3.32999L169.049 5.75414L169.986 5.51778L169.375 3.09364L168.764 0.669491L167.826 0.905849L168.438 3.32999ZM169.375 3.09364L169.986 5.51778L170.924 5.28142L170.312 2.85728L169.701 0.433133L168.764 0.669491L169.375 3.09364ZM170.312 2.85728L170.924 5.28142C170.935 5.2786 170.939 5.27864 170.937 5.27876C170.935 5.27889 170.933 5.2787 170.934 5.2788C170.935 5.27893 170.944 5.28012 170.962 5.28603C170.981 5.29206 171.013 5.30376 171.057 5.32603L172.188 3.09649L173.318 0.866941C172.206 0.302617 170.964 0.114695 169.701 0.433133L170.312 2.85728ZM172.188 3.09649L171.057 5.32603L171.994 5.8016L173.125 3.57205L174.256 1.34251L173.318 0.866941L172.188 3.09649ZM173.125 3.57205L171.994 5.8016L172.932 6.27717L174.062 4.04762L175.193 1.81808L174.256 1.34251L173.125 3.57205ZM174.062 4.04762L172.932 6.27717C173.755 6.69504 174.616 6.99398 175.511 7.14892L175.938 4.68563L176.364 2.22233C176.009 2.16069 175.62 2.03429 175.193 1.81808L174.062 4.04762ZM175.938 4.68563L175.511 7.14892L176.448 7.31136L176.875 4.84806L177.302 2.38476L176.364 2.22233L175.938 4.68563ZM176.875 4.84806L176.448 7.31136L177.386 7.4738L177.812 5.0105L178.239 2.5472L177.302 2.38476L176.875 4.84806ZM177.812 5.0105L177.386 7.4738C178.155 7.60704 178.928 7.67185 179.703 7.66693L179.688 5.16698L179.672 2.66703C179.197 2.67004 178.72 2.63054 178.239 2.5472L177.812 5.0105ZM179.688 5.16698L179.703 7.66693L180.641 7.66098L180.625 5.16103L180.609 2.66108L179.672 2.66703L179.688 5.16698ZM180.625 5.16103L180.641 7.66098L181.578 7.65503L181.562 5.15508L181.547 2.65513L180.609 2.66108L180.625 5.16103ZM181.562 5.15508L181.578 7.65503C182.42 7.64968 183.254 7.53592 184.074 7.31974L183.438 4.90219L182.801 2.48465C182.371 2.59771 181.955 2.65253 181.547 2.65513L181.562 5.15508ZM183.438 4.90219L184.074 7.31974L185.012 7.0728L184.375 4.65526L183.738 2.23771L182.801 2.48465L183.438 4.90219ZM184.375 4.65526L185.012 7.0728L185.949 6.82587L185.312 4.40832L184.676 1.99078L183.738 2.23771L184.375 4.65526ZM185.312 4.40832L185.949 6.82587C186.628 6.64709 187.305 6.4445 187.981 6.21835L187.188 3.84761L186.394 1.47687C185.82 1.66909 185.247 1.84032 184.676 1.99078L185.312 4.40832ZM187.188 3.84761L187.981 6.21835L188.918 5.90457L188.125 3.53383L187.332 1.16309L186.394 1.47687L187.188 3.84761ZM188.125 3.53383L188.918 5.90457L189.856 5.59079L189.062 3.22005L188.269 0.849314L187.332 1.16309L188.125 3.53383ZM189.062 3.22005L189.856 5.59079C189.871 5.58591 189.874 5.58603 189.869 5.58677C189.863 5.58756 189.854 5.58806 189.845 5.58748C189.836 5.58691 189.833 5.58572 189.838 5.58715C189.844 5.58869 189.863 5.59406 189.895 5.60867L190.938 3.33659L191.98 1.06451C190.806 0.525318 189.525 0.429037 188.269 0.849314L189.062 3.22005ZM190.938 3.33659L189.895 5.60867L190.832 6.03899L191.875 3.76691L192.918 1.49483L191.98 1.06451L190.938 3.33659ZM191.875 3.76691L190.832 6.03899L191.77 6.46931L192.812 4.19723L193.855 1.92515L192.918 1.49483L191.875 3.76691ZM192.812 4.19723L191.77 6.46931C192.759 6.92351 193.828 7.13223 194.937 7.02108L194.688 4.53356L194.438 2.04603C194.297 2.06021 194.116 2.04472 193.855 1.92515L192.812 4.19723ZM194.688 4.53356L194.937 7.02108L195.874 6.92709L195.625 4.43956L195.376 1.95203L194.438 2.04603L194.688 4.53356ZM195.625 4.43956L195.874 6.92709L196.812 6.83309L196.562 4.34556L196.313 1.85803L195.376 1.95203L195.625 4.43956ZM196.562 4.34556L196.812 6.83309C197.286 6.78556 197.759 6.7814 198.232 6.82044L198.438 4.32891L198.643 1.83738C197.866 1.77329 197.089 1.78023 196.313 1.85803L196.562 4.34556ZM198.438 4.32891L198.232 6.82044L199.169 6.89779L199.375 4.40626L199.581 1.91472L198.643 1.83738L198.438 4.32891ZM199.375 4.40626L199.169 6.89779L200.107 6.97514L200.312 4.4836L200.518 1.99207L199.581 1.91472L199.375 4.40626ZM200.312 4.4836L200.107 6.97514C200.94 7.04385 201.772 7.0085 202.598 6.87087L202.188 4.40483L201.777 1.93879C201.353 2.00933 200.935 2.02649 200.518 1.99207L200.312 4.4836ZM202.188 4.40483L202.598 6.87087L203.536 6.71475L203.125 4.24871L202.714 1.78267L201.777 1.93879L202.188 4.40483ZM203.125 4.24871L203.536 6.71475L204.473 6.55863L204.062 4.09259L203.652 1.62655L202.714 1.78267L203.125 4.24871ZM204.062 4.09259L204.473 6.55863C205.227 6.43312 205.974 6.24825 206.714 6.00639L205.938 3.63007L205.161 1.25376C204.651 1.42042 204.148 1.54389 203.652 1.62655L204.062 4.09259ZM205.938 3.63007L206.714 6.00639L207.652 5.7L206.875 3.32368L206.098 0.94737L205.161 1.25376L205.938 3.63007ZM206.875 3.32368L207.652 5.7L208.589 5.3936L207.812 3.01729L207.036 0.640979L206.098 0.94737L206.875 3.32368ZM207.812 3.01729L208.589 5.3936C208.561 5.4028 208.516 5.41352 208.459 5.41759C208.402 5.4217 208.346 5.41801 208.298 5.40907C208.198 5.39077 208.184 5.36178 208.261 5.41536L209.688 3.36216L211.114 1.30896C209.961 0.507795 208.529 0.153043 207.036 0.640979L207.812 3.01729ZM209.688 3.36216L208.261 5.41536L209.199 6.06662L210.625 4.01342L212.051 1.96021L211.114 1.30896L209.688 3.36216ZM210.625 4.01342L209.199 6.06662L210.136 6.71788L211.562 4.66467L212.989 2.61147L212.051 1.96021L210.625 4.01342ZM211.562 4.66467L210.136 6.71788C211.177 7.44117 212.444 7.85655 213.831 7.63512L213.438 5.16635L213.044 2.69757C213.06 2.69493 213.081 2.69351 213.104 2.69472C213.126 2.69593 213.141 2.69925 213.146 2.70067C213.157 2.70357 213.105 2.69218 212.989 2.61147L211.562 4.66467ZM213.438 5.16635L213.831 7.63512L214.769 7.48553L214.375 5.01676L213.981 2.54799L213.044 2.69757L213.438 5.16635ZM214.375 5.01676L214.769 7.48553L215.706 7.33595L215.312 4.86718L214.919 2.39841L213.981 2.54799L214.375 5.01676ZM215.312 4.86718L215.706 7.33595C216.371 7.22993 217.035 7.10765 217.698 6.96917L217.188 4.52191L216.677 2.07465C216.09 2.19708 215.504 2.30498 214.919 2.39841L215.312 4.86718ZM217.188 4.52191L217.698 6.96917L218.636 6.77349L218.125 4.32623L217.614 1.87897L216.677 2.07465L217.188 4.52191ZM218.125 4.32623L218.636 6.77349L219.573 6.57781L219.062 4.13055L218.552 1.68329L217.614 1.87897L218.125 4.32623ZM219.062 4.13055L219.573 6.57781C220.229 6.44104 220.883 6.29168 221.538 6.12974L220.938 3.70292L220.337 1.27609C219.742 1.42343 219.146 1.55916 218.552 1.68329L219.062 4.13055ZM220.938 3.70292L221.538 6.12974L222.475 5.89778L221.875 3.47096L221.275 1.04414L220.337 1.27609L220.938 3.70292ZM221.875 3.47096L222.475 5.89778L223.413 5.66583L222.812 3.239L222.212 0.81218L221.275 1.04414L221.875 3.47096ZM222.812 3.239L223.413 5.66583C223.715 5.59101 223.999 5.58082 224.285 5.62745L224.688 3.16012L225.09 0.692791C224.126 0.535325 223.16 0.577719 222.212 0.81218L222.812 3.239ZM224.688 3.16012L224.285 5.62745L225.222 5.78052L225.625 3.31319L226.028 0.845864L225.09 0.692791L224.688 3.16012ZM225.625 3.31319L225.222 5.78052L226.16 5.93359L226.562 3.46626L226.965 0.998936L226.028 0.845864L225.625 3.31319ZM226.562 3.46626L226.16 5.93359C226.581 6.00239 227.02 6.127 227.478 6.31752L228.438 4.00891L229.397 1.70029C228.605 1.37138 227.794 1.13423 226.965 0.998936L226.562 3.46626ZM228.438 4.00891L227.478 6.31752L228.416 6.70709L229.375 4.39848L230.334 2.08986L229.397 1.70029L228.438 4.00891ZM229.375 4.39848L228.416 6.70709L229.353 7.09666L230.312 4.78805L231.272 2.47943L230.334 2.08986L229.375 4.39848ZM230.312 4.78805L229.353 7.09666C230.387 7.52623 231.493 7.67304 232.619 7.47603L232.188 5.01349L231.756 2.55094C231.632 2.57277 231.488 2.56929 231.272 2.47943L230.312 4.78805ZM232.188 5.01349L232.619 7.47603L233.556 7.31191L233.125 4.84936L232.694 2.38681L231.756 2.55094L232.188 5.01349ZM233.125 4.84936L233.556 7.31191L234.494 7.14778L234.062 4.68523L233.631 2.22268L232.694 2.38681L233.125 4.84936ZM234.062 4.68523L234.494 7.14778C235.414 6.98659 236.294 6.66325 237.128 6.21141L235.938 4.01323L234.747 1.81506C234.331 2.04038 233.961 2.16504 233.631 2.22268L234.062 4.68523ZM235.938 4.01323L237.128 6.21141L238.066 5.70355L236.875 3.50537L235.684 1.30719L234.747 1.81506L235.938 4.01323ZM236.875 3.50537L238.066 5.70355L239.003 5.19568L237.812 2.9975L236.622 0.799322L235.684 1.30719L236.875 3.50537ZM237.812 2.9975L239.003 5.19568C239.306 5.03153 239.515 4.99843 239.659 5.00006L239.688 2.50022L239.716 0.000375748C238.61 -0.0121078 237.569 0.286314 236.622 0.799322L237.812 2.9975ZM239.688 2.50022L239.659 5.00006L240.597 5.01064L240.625 2.5108L240.653 0.0109582L239.716 0.000375748L239.688 2.50022ZM240.625 2.5108L240.597 5.01064L241.534 5.02122L241.562 2.52138L241.591 0.0215406L240.653 0.0109582L240.625 2.5108ZM241.562 2.52138L241.534 5.02122C241.556 5.02147 241.702 5.02372 242.007 5.23635L243.438 3.18622L244.868 1.1361C243.923 0.476377 242.819 0.0354025 241.591 0.0215406L241.562 2.52138ZM243.438 3.18622L242.007 5.23635L242.944 5.8906L244.375 3.84048L245.806 1.79035L244.868 1.1361L243.438 3.18622ZM244.375 3.84048L242.944 5.8906L243.882 6.54486L245.312 4.49473L246.743 2.44461L245.806 1.79035L244.375 3.84048ZM245.312 4.49473L243.882 6.54486C244.499 6.97568 245.263 7.30247 246.146 7.3392C247.037 7.37625 247.835 7.10911 248.497 6.70252L247.188 4.57272L245.878 2.44291C245.915 2.42051 246.088 2.33246 246.354 2.34352C246.612 2.35425 246.751 2.44996 246.743 2.44461L245.312 4.49473ZM247.188 4.57272L248.497 6.70252L249.434 6.12624L248.125 3.99644L246.816 1.86664L245.878 2.44291L247.188 4.57272ZM248.125 3.99644L249.434 6.12624L250.372 5.54997L249.062 3.42016L247.753 1.29036L246.816 1.86664L248.125 3.99644ZM249.062 3.42016L250.372 5.54997C250.35 5.56338 250.199 5.64372 249.958 5.63962C249.846 5.63773 249.751 5.61794 249.679 5.59405C249.61 5.57101 249.576 5.54866 249.577 5.5494L250.938 3.45197L252.298 1.35454C251.669 0.946333 250.906 0.654992 250.042 0.640337C249.176 0.625635 248.4 0.892764 247.753 1.29036L249.062 3.42016ZM250.938 3.45197L249.577 5.5494L250.515 6.15748L251.875 4.06005L253.235 1.96261L252.298 1.35454L250.938 3.45197ZM251.875 4.06005L250.515 6.15748L251.452 6.76556L252.812 4.66813L254.173 2.57069L253.235 1.96261L251.875 4.06005ZM252.812 4.66813L251.452 6.76556C252.433 7.40184 253.572 7.78893 254.818 7.72377L254.688 5.22718L254.557 2.73059C254.553 2.7308 254.442 2.74518 254.173 2.57069L252.812 4.66813ZM254.688 5.22718L254.818 7.72377L255.756 7.67474L255.625 5.17815L255.494 2.68156L254.557 2.73059L254.688 5.22718ZM255.625 5.17815L255.756 7.67474L256.693 7.62571L256.562 5.12912L256.432 2.63254L255.494 2.68156L255.625 5.17815ZM256.562 5.12912L256.693 7.62571C257.635 7.57647 258.546 7.35176 259.418 6.98037L258.438 4.68054L257.457 2.3807C257.079 2.54206 256.74 2.61641 256.432 2.63254L256.562 5.12912ZM258.438 4.68054L259.418 6.98037L260.355 6.58081L259.375 4.28098L258.395 1.98114L257.457 2.3807L258.438 4.68054ZM259.375 4.28098L260.355 6.58081L261.293 6.18125L260.312 3.88142L259.332 1.58158L258.395 1.98114L259.375 4.28098ZM260.312 3.88142L261.293 6.18125C261.601 6.0497 261.852 6.01315 262.069 6.02342L262.188 3.52622L262.306 1.02901C261.273 0.980142 260.274 1.18039 259.332 1.58158L260.312 3.88142ZM262.188 3.52622L262.069 6.02342L263.007 6.06779L263.125 3.57058L263.243 1.07337L262.306 1.02901L262.188 3.52622ZM263.125 3.57058L263.007 6.06779L263.944 6.11215L264.062 3.61494L264.181 1.11773L263.243 1.07337L263.125 3.57058ZM264.062 3.61494L263.944 6.11215C264.428 6.13503 264.915 6.19901 265.408 6.3058L265.938 3.86257L266.467 1.41934C265.71 1.25511 264.947 1.154 264.181 1.11773L264.062 3.61494ZM265.938 3.86257L265.408 6.3058L266.345 6.50907L266.875 4.06584L267.405 1.62261L266.467 1.41934L265.938 3.86257ZM266.875 4.06584L266.345 6.50907L267.283 6.71234L267.812 4.26911L268.342 1.82588L267.405 1.62261L266.875 4.06584ZM267.812 4.26911L267.283 6.71234C267.92 6.85052 268.557 6.98367 269.195 7.11179L269.688 4.66081L270.18 2.20982C269.568 2.0867 268.955 1.95872 268.342 1.82588L267.812 4.26911ZM269.688 4.66081L269.195 7.11179L270.132 7.30022L270.625 4.84924L271.118 2.39825L270.18 2.20982L269.688 4.66081ZM270.625 4.84924L270.132 7.30022L271.07 7.48865L271.562 5.03766L272.055 2.58668L271.118 2.39825L270.625 4.84924ZM271.562 5.03766L271.07 7.48865C272.273 7.73046 273.448 7.5441 274.516 7.03272L273.438 4.77755L272.359 2.52237C272.177 2.60905 272.102 2.5961 272.055 2.58668L271.562 5.03766ZM273.438 4.77755L274.516 7.03272L275.454 6.58417L274.375 4.329L273.296 2.07383L272.359 2.52237L273.438 4.77755ZM274.375 4.329L275.454 6.58417L276.391 6.13563L275.312 3.88046L274.234 1.62528L273.296 2.07383L274.375 4.329ZM275.312 3.88046L276.391 6.13563C276.474 6.09596 276.514 6.09187 276.517 6.0915C276.52 6.09114 276.522 6.09117 276.524 6.09134C276.526 6.09151 276.535 6.09228 276.55 6.09643L277.188 3.67897L277.825 1.2615C276.583 0.934408 275.352 1.09032 274.234 1.62528L275.312 3.88046ZM277.188 3.67897L276.55 6.09643L277.488 6.34349L278.125 3.92602L278.762 1.50856L277.825 1.2615L277.188 3.67897ZM278.125 3.92602L277.488 6.34349L278.425 6.59055L279.062 4.17308L279.7 1.75562L278.762 1.50856L278.125 3.92602ZM279.062 4.17308L278.425 6.59055C279.122 6.77421 279.822 6.92524 280.523 7.04318L280.938 4.5778L281.352 2.11242C280.803 2.02014 280.253 1.90136 279.7 1.75562L279.062 4.17308ZM280.938 4.5778L280.523 7.04318L281.46 7.20084L281.875 4.73546L282.29 2.27007L281.352 2.11242L280.938 4.5778ZM281.875 4.73546L281.46 7.20084L282.398 7.3585L282.812 4.89311L283.227 2.42773L282.29 2.27007L281.875 4.73546ZM282.812 4.89311L282.398 7.3585C283.523 7.5477 284.627 7.39413 285.657 6.96105L284.688 4.65653L283.718 2.35201C283.498 2.44458 283.352 2.44874 283.227 2.42773L282.812 4.89311ZM284.688 4.65653L285.657 6.96105L286.594 6.56681L285.625 4.26229L284.656 1.95776L283.718 2.35201L284.688 4.65653ZM285.625 4.26229L286.594 6.56681L287.532 6.17257L286.562 3.86805L285.593 1.56352L284.656 1.95776L285.625 4.26229ZM286.562 3.86805L287.532 6.17257C288.024 5.96562 288.503 5.81415 288.969 5.71262L288.438 3.26979L287.906 0.826963C287.122 0.997446 286.351 1.24481 285.593 1.56352L286.562 3.86805ZM288.438 3.26979L288.969 5.71262L289.907 5.50861L289.375 3.06578L288.843 0.622952L287.906 0.826963L288.438 3.26979ZM289.375 3.06578L289.907 5.50861L290.844 5.3046L290.312 2.86177L289.781 0.418941L288.843 0.622952L289.375 3.06578ZM290.312 2.86177L290.844 5.3046C291.123 5.24396 291.389 5.24346 291.667 5.3026L292.188 2.85746L292.708 0.412323C291.736 0.205196 290.752 0.207566 289.781 0.418941L290.312 2.86177ZM292.188 2.85746L291.667 5.3026L292.604 5.50231L293.125 3.05717L293.646 0.612027L292.708 0.412323L292.188 2.85746ZM293.125 3.05717L292.604 5.50231L293.542 5.70201L294.062 3.25687L294.583 0.811732L293.646 0.612027L293.125 3.05717ZM294.062 3.25687L293.542 5.70201C294.182 5.83841 294.822 5.96854 295.463 6.0924L295.938 3.63787L296.412 1.18334C295.803 1.06548 295.193 0.941606 294.583 0.811732L294.062 3.25687ZM295.938 3.63787L295.463 6.0924L296.4 6.27369L296.875 3.81916L297.35 1.36464L296.412 1.18334L295.938 3.63787ZM296.875 3.81916L296.4 6.27369L297.338 6.45498L297.812 4.00046L298.287 1.54593L297.35 1.36464L296.875 3.81916ZM297.812 4.00046L297.338 6.45498C298.253 6.63189 299.177 6.64516 300.096 6.49304L299.688 4.02659L299.279 1.56015C298.948 1.61491 298.622 1.61075 298.287 1.54593L297.812 4.00046ZM299.688 4.02659L300.096 6.49304L301.033 6.33788L300.625 3.87143L300.217 1.40499L299.279 1.56015L299.688 4.02659ZM300.625 3.87143L301.033 6.33788L301.971 6.18272L301.562 3.71628L301.154 1.24983L300.217 1.40499L300.625 3.87143ZM301.562 3.71628L301.971 6.18272C302.055 6.16879 302.172 6.16591 302.382 6.264L303.438 3.99756L304.493 1.73112C303.453 1.24729 302.32 1.05688 301.154 1.24983L301.562 3.71628ZM303.438 3.99756L302.382 6.264L303.32 6.70044L304.375 4.434L305.43 2.16757L304.493 1.73112L303.438 3.99756ZM304.375 4.434L303.32 6.70044L304.257 7.13688L305.312 4.87045L306.368 2.60401L305.43 2.16757L304.375 4.434ZM305.312 4.87045L304.257 7.13688C305.615 7.76882 307.064 7.70516 308.36 7.01708L307.188 4.80907L306.015 2.60106C305.995 2.61191 306.052 2.57846 306.168 2.57466C306.222 2.57291 306.27 2.57825 306.31 2.58683C306.349 2.59522 306.369 2.60444 306.368 2.60401L305.312 4.87045ZM307.188 4.80907L308.36 7.01708L309.297 6.51926L308.125 4.31125L306.953 2.10324L306.015 2.60106L307.188 4.80907ZM308.125 4.31125L309.297 6.51926L310.235 6.02144L309.062 3.81343L307.89 1.60542L306.953 2.10324L308.125 4.31125ZM309.062 3.81343L310.235 6.02144C310.637 5.808 310.989 5.69779 311.298 5.65269L310.938 3.17887L310.577 0.705043C309.636 0.842263 308.738 1.15509 307.89 1.60542L309.062 3.81343ZM310.938 3.17887L311.298 5.65269L312.236 5.51596L311.875 3.04213L311.514 0.568305L310.577 0.705043L310.938 3.17887ZM311.875 3.04213L312.236 5.51596L313.173 5.37922L312.812 2.90539L312.452 0.431568L311.514 0.568305L311.875 3.04213ZM312.812 2.90539L313.173 5.37922C313.39 5.34761 313.384 5.37034 313.246 5.35281C313.17 5.34308 312.977 5.31171 312.735 5.19805C312.48 5.07828 312.134 4.84824 311.86 4.43924L313.938 3.04884L316.015 1.65844C315.346 0.658716 314.313 0.448301 313.879 0.392964C313.366 0.327614 312.86 0.372014 312.452 0.431568L312.812 2.90539ZM313.938 3.04884L311.86 4.43924L312.047 4.71943L314.125 3.32902L316.203 1.93862L316.015 1.65844L313.938 3.04884ZM314.125 3.32902L311.881 4.43042L312.156 4.99079L314.4 3.88939L316.644 2.78799L316.369 2.22762L314.125 3.32902ZM314.4 3.88939V6.38939H314.5V3.88939V1.38939H314.4V3.88939Z" fill="currentColor"/>
</svg>
